<svg xmlns="http://www.w3.org/2000/svg" xmlns:xlink="http://www.w3.org/1999/xlink" width="2000" zoomAndPan="magnify" viewBox="0 0 1500 1499.999933" height="2000" preserveAspectRatio="xMidYMid meet" version="1.0"><defs><g/><clipPath id="61e7ba0c6d"><path d="M 343 401 L 1154.792969 401 L 1154.792969 1324.34375 L 343 1324.34375 Z M 343 401 " clip-rule="nonzero"/></clipPath></defs><g clip-path="url(#61e7ba0c6d)"><path fill="#e44d26" d="M 1157.5625 401.140625 L 1083.363281 1231.890625 L 749.816406 1324.296875 L 417.191406 1232.019531 L 343.074219 401.140625 L 1157.546875 401.128906 L 1157.578125 401.128906 Z M 1157.5625 401.140625 " fill-opacity="1" fill-rule="nonzero"/></g><path fill="#f16529" d="M 750.324219 1253.667969 L 1019.859375 1179 L 1083.265625 469.085938 L 750.324219 469.074219 Z M 750.324219 1253.667969 " fill-opacity="1" fill-rule="nonzero"/><path fill="#ebebeb" d="M 606.078125 672.878906 L 750.324219 672.878906 L 750.324219 570.96875 L 494.640625 570.96875 L 497.078125 598.3125 L 522.140625 879.132812 L 750.324219 879.132812 L 750.324219 777.25 L 615.398438 777.25 Z M 606.078125 672.878906 " fill-opacity="1" fill-rule="nonzero"/><path fill="#ebebeb" d="M 629.058594 930.089844 L 526.699219 930.089844 L 540.984375 1090.105469 L 749.847656 1148.050781 L 750.324219 1147.921875 L 750.324219 1041.894531 L 749.878906 1042.023438 L 636.320312 1011.359375 Z M 629.058594 930.089844 " fill-opacity="1" fill-rule="nonzero"/><path fill="#ffffff" d="M 749.976562 879.132812 L 875.546875 879.132812 L 863.699219 1011.292969 L 749.976562 1041.988281 L 749.976562 1147.988281 L 959.003906 1090.105469 L 960.539062 1072.875 L 984.515625 804.597656 L 987.003906 777.25 L 749.976562 777.25 Z M 749.976562 879.132812 " fill-opacity="1" fill-rule="nonzero"/><path fill="#ffffff" d="M 749.976562 672.625 L 749.976562 672.878906 L 996.265625 672.878906 L 998.308594 649.96875 L 1002.96875 598.3125 L 1005.394531 570.96875 L 749.976562 570.96875 Z M 749.976562 672.625 " fill-opacity="1" fill-rule="nonzero"/><g fill="#ffffff" fill-opacity="1"><g transform="translate(446.102689, 320.901442)"><g><path d="M 148.453125 -154.640625 L 148.453125 0 C 141.679688 0 134.941406 0 128.234375 0 C 121.535156 0 114.800781 0 108.03125 0 L 108.03125 -62.078125 L 60.3125 -62.078125 L 60.3125 0 C 53.539062 0 46.765625 0 39.984375 0 C 33.210938 0 26.515625 0 19.890625 0 L 19.890625 -154.640625 C 26.515625 -154.640625 33.210938 -154.640625 39.984375 -154.640625 C 46.765625 -154.640625 53.539062 -154.640625 60.3125 -154.640625 L 60.3125 -98.53125 L 108.03125 -98.53125 L 108.03125 -154.640625 C 114.800781 -154.640625 121.535156 -154.640625 128.234375 -154.640625 C 134.941406 -154.640625 141.679688 -154.640625 148.453125 -154.640625 Z M 148.453125 -154.640625 "/></g></g></g><g fill="#ffffff" fill-opacity="1"><g transform="translate(614.44913, 320.901442)"><g><path d="M 42.421875 -119.296875 L 4.421875 -119.296875 C 4.421875 -125.335938 4.421875 -131.265625 4.421875 -137.078125 C 4.421875 -142.898438 4.421875 -148.753906 4.421875 -154.640625 L 119.296875 -154.640625 C 119.296875 -148.753906 119.296875 -142.898438 119.296875 -137.078125 C 119.296875 -131.265625 119.296875 -125.335938 119.296875 -119.296875 L 81.515625 -119.296875 L 81.515625 0 C 75.035156 0 68.519531 0 61.96875 0 C 55.414062 0 48.898438 0 42.421875 0 Z M 42.421875 -119.296875 "/></g></g></g><g fill="#ffffff" fill-opacity="1"><g transform="translate(738.610168, 320.901442)"><g><path d="M 94.546875 -87.921875 L 156.1875 -155.09375 L 170.328125 -155.09375 L 170.328125 0 C 163.554688 0 156.816406 0 150.109375 0 C 143.410156 0 136.675781 0 129.90625 0 L 129.90625 -68.921875 L 96.984375 -34.46875 L 92.5625 -34.46875 L 59.875 -68.921875 L 59.875 0 C 53.09375 0 46.351562 0 39.65625 0 C 32.957031 0 26.21875 0 19.4375 0 L 19.4375 -155.09375 L 34.015625 -155.09375 Z M 94.546875 -87.921875 "/></g></g></g><g fill="#ffffff" fill-opacity="1"><g transform="translate(928.607479, 320.901442)"><g><path d="M 59.203125 -154.640625 C 59.203125 -143.148438 59.203125 -133.648438 59.203125 -126.140625 C 59.203125 -118.628906 59.203125 -112.40625 59.203125 -107.46875 C 59.203125 -102.539062 59.203125 -98.34375 59.203125 -94.875 C 59.203125 -91.414062 59.203125 -88.101562 59.203125 -84.9375 C 59.203125 -81.769531 59.203125 -78.160156 59.203125 -74.109375 C 59.203125 -70.066406 59.203125 -64.988281 59.203125 -58.875 C 59.203125 -52.757812 59.203125 -44.988281 59.203125 -35.5625 L 115.328125 -35.5625 C 115.328125 -28.9375 115.328125 -23.007812 115.328125 -17.78125 C 115.328125 -12.550781 115.328125 -6.625 115.328125 0 C 99.421875 0 83.398438 0 67.265625 0 C 51.140625 0 35.195312 0 19.4375 0 L 19.4375 -154.640625 C 26.0625 -154.640625 32.648438 -154.640625 39.203125 -154.640625 C 45.765625 -154.640625 52.429688 -154.640625 59.203125 -154.640625 Z M 59.203125 -154.640625 "/></g></g></g></svg>