<svg xmlns="http://www.w3.org/2000/svg" xmlns:xlink="http://www.w3.org/1999/xlink" width="2000" zoomAndPan="magnify" viewBox="0 0 1500 1499.999933" height="2000" preserveAspectRatio="xMidYMid meet" version="1.0"><defs><clipPath id="9b0644296a"><path d="M 60.480469 60.480469 L 1439.519531 60.480469 L 1439.519531 1439.519531 L 60.480469 1439.519531 Z M 60.480469 60.480469 " clip-rule="nonzero"/></clipPath><clipPath id="baa37c64ad"><path d="M 750 60.480469 C 369.1875 60.480469 60.480469 369.1875 60.480469 750 C 60.480469 1130.8125 369.1875 1439.519531 750 1439.519531 C 1130.8125 1439.519531 1439.519531 1130.8125 1439.519531 750 C 1439.519531 369.1875 1130.8125 60.480469 750 60.480469 Z M 750 60.480469 " clip-rule="nonzero"/></clipPath><clipPath id="b3ca085c2c"><path d="M 0.480469 0.480469 L 1379.519531 0.480469 L 1379.519531 1379.519531 L 0.480469 1379.519531 Z M 0.480469 0.480469 " clip-rule="nonzero"/></clipPath><clipPath id="11bfbc5e6f"><path d="M 690 0.480469 C 309.1875 0.480469 0.480469 309.1875 0.480469 690 C 0.480469 1070.8125 309.1875 1379.519531 690 1379.519531 C 1070.8125 1379.519531 1379.519531 1070.8125 1379.519531 690 C 1379.519531 309.1875 1070.8125 0.480469 690 0.480469 Z M 690 0.480469 " clip-rule="nonzero"/></clipPath><clipPath id="48d4220069"><rect x="0" width="1380" y="0" height="1380"/></clipPath><clipPath id="387aca078d"><path d="M 313.953125 310.152344 L 1186 310.152344 L 1186 1183 L 313.953125 1183 Z M 313.953125 310.152344 " clip-rule="nonzero"/></clipPath></defs><g clip-path="url(#9b0644296a)"><g clip-path="url(#baa37c64ad)"><g transform="matrix(1, 0, 0, 1, 60, 60)"><g clip-path="url(#48d4220069)"><g clip-path="url(#b3ca085c2c)"><g clip-path="url(#11bfbc5e6f)"><path fill="#ffffff" d="M 0.480469 0.480469 L 1379.519531 0.480469 L 1379.519531 1379.519531 L 0.480469 1379.519531 Z M 0.480469 0.480469 " fill-opacity="1" fill-rule="nonzero"/></g></g></g></g></g></g><g clip-path="url(#387aca078d)"><path fill="#5382a1" d="M 1056.929688 1053.851562 L 927.742188 1053.851562 L 927.742188 851.515625 C 927.742188 803.285156 926.878906 741.160156 860.554688 741.160156 C 794.234375 741.160156 782.96875 793.746094 782.96875 848.019531 L 782.96875 1053.851562 L 653.78125 1053.851562 L 653.78125 637.75 L 777.832031 637.75 L 777.832031 694.613281 L 779.558594 694.613281 C 804.84375 651.359375 851.882812 625.539062 901.917969 627.390625 C 1032.875 627.390625 1057.011719 713.527344 1057.011719 825.570312 L 1057.011719 1053.851562 Z M 507.941406 580.886719 C 466.535156 580.886719 432.945312 547.335938 432.945312 505.929688 C 432.945312 464.527344 466.496094 430.933594 507.898438 430.933594 C 549.304688 430.933594 582.898438 464.484375 582.898438 505.890625 C 582.898438 547.292969 549.347656 580.886719 507.941406 580.886719 M 572.578125 1053.851562 L 443.222656 1053.851562 L 443.222656 637.75 L 572.578125 637.75 Z M 1121.359375 310.914062 L 378.300781 310.914062 C 343.1875 310.546875 314.363281 338.667969 313.953125 373.78125 L 313.953125 1119.925781 C 314.363281 1155.078125 343.144531 1183.203125 378.300781 1182.832031 L 1121.359375 1182.832031 C 1156.554688 1183.285156 1185.460938 1155.121094 1185.953125 1119.925781 L 1185.953125 373.742188 C 1185.460938 338.546875 1156.554688 310.421875 1121.359375 310.875 " fill-opacity="1" fill-rule="nonzero"/></g></svg>