<svg xmlns="http://www.w3.org/2000/svg" xmlns:xlink="http://www.w3.org/1999/xlink" width="2000" zoomAndPan="magnify" viewBox="0 0 1500 1499.999933" height="2000" preserveAspectRatio="xMidYMid meet" version="1.0"><defs><clipPath id="ce75583482"><path d="M 60.480469 60.480469 L 1439.519531 60.480469 L 1439.519531 1439.519531 L 60.480469 1439.519531 Z M 60.480469 60.480469 " clip-rule="nonzero"/></clipPath><clipPath id="f68ad375f3"><path d="M 750 60.480469 C 369.1875 60.480469 60.480469 369.1875 60.480469 750 C 60.480469 1130.8125 369.1875 1439.519531 750 1439.519531 C 1130.8125 1439.519531 1439.519531 1130.8125 1439.519531 750 C 1439.519531 369.1875 1130.8125 60.480469 750 60.480469 Z M 750 60.480469 " clip-rule="nonzero"/></clipPath><clipPath id="cc963693c0"><path d="M 0.480469 0.480469 L 1379.519531 0.480469 L 1379.519531 1379.519531 L 0.480469 1379.519531 Z M 0.480469 0.480469 " clip-rule="nonzero"/></clipPath><clipPath id="733884125e"><path d="M 690 0.480469 C 309.1875 0.480469 0.480469 309.1875 0.480469 690 C 0.480469 1070.8125 309.1875 1379.519531 690 1379.519531 C 1070.8125 1379.519531 1379.519531 1070.8125 1379.519531 690 C 1379.519531 309.1875 1070.8125 0.480469 690 0.480469 Z M 690 0.480469 " clip-rule="nonzero"/></clipPath><clipPath id="606039b89d"><rect x="0" width="1380" y="0" height="1380"/></clipPath><clipPath id="8501d90b15"><path d="M 134.605469 134.605469 L 1365.355469 134.605469 L 1365.355469 1365.355469 L 134.605469 1365.355469 Z M 134.605469 134.605469 " clip-rule="nonzero"/></clipPath></defs><g clip-path="url(#ce75583482)"><g clip-path="url(#f68ad375f3)"><g transform="matrix(1, 0, 0, 1, 60, 60)"><g clip-path="url(#606039b89d)"><g clip-path="url(#cc963693c0)"><g clip-path="url(#733884125e)"><path fill="#ffffff" d="M 0.480469 0.480469 L 1379.519531 0.480469 L 1379.519531 1379.519531 L 0.480469 1379.519531 Z M 0.480469 0.480469 " fill-opacity="1" fill-rule="nonzero"/></g></g></g></g></g></g><g clip-path="url(#8501d90b15)"><path fill="#5382a1" d="M 750 134.605469 C 410.128906 134.605469 134.605469 410.128906 134.605469 750 C 134.605469 1089.871094 410.128906 1365.390625 750 1365.390625 C 1089.871094 1365.390625 1365.390625 1089.871094 1365.390625 750 C 1365.390625 410.128906 1089.871094 134.605469 750 134.605469 Z M 750 1318.78125 C 435.871094 1318.78125 181.21875 1064.125 181.21875 750 C 181.21875 435.871094 435.871094 181.21875 750 181.21875 C 1064.128906 181.21875 1318.78125 435.871094 1318.78125 750 C 1318.78125 1064.128906 1064.128906 1318.78125 750 1318.78125 Z M 750 1318.78125 " fill-opacity="1" fill-rule="nonzero"/></g><path fill="#5382a1" d="M 677.773438 1051.648438 C 662.339844 1053.128906 650.011719 1054.828125 637.628906 1055.410156 C 567.414062 1058.730469 515.425781 1031.050781 483.902344 966.5 C 473.863281 945.941406 461.007812 926.542969 447.625 907.917969 C 439.585938 896.730469 428.320312 887.746094 417.917969 878.429688 L 417.792969 878.320312 C 411.359375 872.65625 414.199219 862.066406 422.648438 860.648438 C 432.570312 858.980469 441.816406 860.773438 450.832031 863.066406 C 479.066406 870.253906 497.1875 890.269531 511.625 914.207031 C 544.28125 968.34375 600.515625 990.925781 661.320312 974.796875 C 671.644531 972.058594 676.195312 967.613281 678.441406 956.355469 C 681.0625 943.222656 684.625 930.28125 688.457031 917.085938 C 688.734375 916.117188 688.96875 915.136719 689.148438 914.144531 C 689.332031 913.148438 689.460938 912.152344 689.542969 911.144531 C 689.621094 910.140625 689.652344 909.132812 689.628906 908.121094 C 689.605469 907.113281 689.535156 906.109375 689.410156 905.105469 C 689.285156 904.105469 689.113281 903.113281 688.886719 902.128906 C 688.664062 901.144531 688.390625 900.175781 688.066406 899.21875 C 687.742188 898.261719 687.371094 897.324219 686.953125 896.40625 C 686.535156 895.488281 686.074219 894.59375 685.566406 893.722656 C 685.054688 892.851562 684.503906 892.007812 683.910156 891.191406 C 683.316406 890.375 682.683594 889.59375 682.007812 888.839844 C 681.335938 888.089844 680.625 887.375 679.878906 886.695312 C 679.132812 886.015625 678.351562 885.375 677.542969 884.777344 C 676.730469 884.175781 675.890625 883.617188 675.023438 883.101562 C 674.15625 882.585938 673.265625 882.117188 672.347656 881.691406 C 671.433594 881.265625 670.5 880.890625 669.542969 880.558594 C 668.589844 880.230469 667.621094 879.949219 666.640625 879.71875 L 666.300781 879.636719 C 603.207031 864.539062 548.703125 836.433594 513.585938 778.773438 C 494.804688 747.945312 485.515625 713.980469 485.992188 678.597656 C 486.53125 638.453125 490.082031 598.226562 494.695312 558.308594 C 497.945312 530.199219 510.960938 505.308594 531.171875 485.097656 C 538.214844 478.054688 538.8125 472.148438 535.410156 463.027344 C 521.496094 425.679688 523.914062 388.253906 536.265625 350.824219 C 539.75 340.261719 544.699219 338.753906 554.800781 341.933594 C 586.066406 351.773438 609.386719 372.113281 629.886719 396.480469 L 630.09375 396.726562 C 631.375 398.265625 632.761719 399.703125 634.257812 401.03125 C 635.753906 402.363281 637.335938 403.578125 639.011719 404.671875 C 640.6875 405.769531 642.433594 406.734375 644.253906 407.566406 C 646.074219 408.402344 647.945312 409.097656 649.867188 409.652344 C 651.789062 410.210938 653.742188 410.621094 655.726562 410.882812 C 657.710938 411.148438 659.703125 411.265625 661.703125 411.234375 C 663.707031 411.199219 665.695312 411.019531 667.667969 410.691406 C 669.640625 410.363281 671.582031 409.890625 673.484375 409.269531 C 738.359375 387.992188 836.785156 387.710938 897.972656 408.765625 C 899.882812 409.417969 901.832031 409.917969 903.820312 410.273438 C 905.808594 410.628906 907.808594 410.832031 909.828125 410.886719 C 911.847656 410.941406 913.855469 410.84375 915.859375 410.59375 C 917.863281 410.34375 919.835938 409.949219 921.777344 409.402344 C 923.722656 408.855469 925.613281 408.164062 927.453125 407.335938 C 929.292969 406.503906 931.058594 405.539062 932.753906 404.441406 C 934.449219 403.34375 936.050781 402.125 937.558594 400.785156 C 939.070312 399.449219 940.472656 398.003906 941.765625 396.453125 L 941.964844 396.21875 C 962.496094 371.859375 985.921875 351.675781 1017.164062 341.808594 C 1027.644531 338.496094 1032.109375 341.015625 1035.425781 351.210938 C 1047.617188 388.65625 1049.695312 425.859375 1036.507812 463.59375 C 1034.652344 468.90625 1034.726562 478.148438 1038.03125 481.503906 C 1066.042969 509.917969 1078.308594 545.1875 1081.421875 583.40625 C 1084.425781 620.328125 1087.683594 657.882812 1084.253906 694.546875 C 1075.335938 789.898438 1017.359375 845.4375 929.195312 873.042969 C 921.648438 875.40625 913.984375 877.386719 906.164062 879.234375 C 905.148438 879.476562 904.148438 879.765625 903.164062 880.113281 C 902.179688 880.457031 901.21875 880.851562 900.273438 881.296875 C 899.332031 881.742188 898.414062 882.234375 897.523438 882.773438 C 896.632812 883.316406 895.773438 883.902344 894.945312 884.53125 C 894.113281 885.164062 893.320312 885.835938 892.5625 886.550781 C 891.800781 887.265625 891.082031 888.015625 890.402344 888.808594 C 889.71875 889.597656 889.082031 890.417969 888.488281 891.277344 C 887.894531 892.132812 887.347656 893.015625 886.84375 893.929688 C 886.34375 894.84375 885.890625 895.78125 885.484375 896.742188 C 885.082031 897.703125 884.730469 898.683594 884.429688 899.679688 C 884.128906 900.679688 883.878906 901.691406 883.683594 902.714844 C 883.488281 903.738281 883.347656 904.769531 883.261719 905.808594 C 883.171875 906.847656 883.140625 907.886719 883.160156 908.929688 C 883.183594 909.972656 883.257812 911.011719 883.390625 912.042969 C 883.519531 913.078125 883.703125 914.101562 883.941406 915.117188 C 884.179688 916.132812 884.46875 917.132812 884.808594 918.117188 C 896.820312 952.917969 894.984375 990.101562 894.796875 1027.042969 C 894.757812 1035.53125 894.726562 1044.027344 894.710938 1052.527344 C 894.707031 1054.28125 894.660156 1056.035156 894.570312 1057.785156 C 894.480469 1059.535156 894.347656 1061.28125 894.171875 1063.027344 C 893.996094 1064.769531 893.78125 1066.511719 893.519531 1068.242188 C 893.257812 1069.976562 892.957031 1071.703125 892.609375 1073.421875 C 892.265625 1075.140625 891.878906 1076.847656 891.449219 1078.550781 C 891.019531 1080.25 890.550781 1081.9375 890.039062 1083.613281 C 889.527344 1085.289062 888.972656 1086.953125 888.378906 1088.601562 C 887.785156 1090.253906 887.152344 1091.886719 886.480469 1093.503906 C 885.804688 1095.125 885.09375 1096.722656 884.339844 1098.308594 C 883.589844 1099.890625 882.800781 1101.457031 881.96875 1103 C 881.140625 1104.542969 880.277344 1106.066406 879.371094 1107.570312 C 878.46875 1109.074219 877.53125 1110.550781 876.554688 1112.007812 C 875.578125 1113.464844 874.566406 1114.894531 873.519531 1116.300781 C 872.476562 1117.710938 871.394531 1119.089844 870.28125 1120.441406 C 869.167969 1121.796875 868.019531 1123.121094 866.84375 1124.417969 C 865.664062 1125.71875 864.453125 1126.984375 863.210938 1128.222656 C 861.972656 1129.460938 860.703125 1130.667969 859.402344 1131.84375 C 858.101562 1133.019531 856.773438 1134.164062 855.417969 1135.273438 C 854.0625 1136.386719 852.679688 1137.460938 851.269531 1138.503906 C 849.859375 1139.546875 848.425781 1140.554688 846.96875 1141.527344 C 845.511719 1142.5 844.027344 1143.4375 842.523438 1144.335938 C 841.019531 1145.238281 839.496094 1146.101562 837.949219 1146.925781 C 836.402344 1147.75 834.835938 1148.539062 833.25 1149.285156 C 831.664062 1150.035156 830.0625 1150.742188 828.441406 1151.414062 C 826.824219 1152.082031 825.1875 1152.714844 823.535156 1153.300781 C 821.886719 1153.890625 820.222656 1154.441406 818.542969 1154.949219 C 816.867188 1155.457031 815.175781 1155.925781 813.476562 1156.347656 C 811.777344 1156.773438 810.066406 1157.15625 808.347656 1157.5 C 806.625 1157.839844 804.898438 1158.140625 803.167969 1158.398438 C 801.433594 1158.652344 799.691406 1158.867188 797.949219 1159.039062 C 796.203125 1159.210938 794.457031 1159.339844 792.703125 1159.425781 C 790.953125 1159.511719 789.203125 1159.554688 787.449219 1159.554688 L 785.03125 1159.554688 C 783.277344 1159.554688 781.523438 1159.511719 779.769531 1159.425781 C 778.015625 1159.335938 776.265625 1159.207031 774.519531 1159.035156 C 772.773438 1158.863281 771.03125 1158.648438 769.292969 1158.390625 C 767.558594 1158.132812 765.828125 1157.835938 764.105469 1157.492188 C 762.386719 1157.148438 760.671875 1156.765625 758.96875 1156.339844 C 757.265625 1155.910156 755.574219 1155.445312 753.894531 1154.933594 C 752.214844 1154.425781 750.550781 1153.875 748.898438 1153.28125 C 747.242188 1152.691406 745.605469 1152.058594 743.984375 1151.386719 C 742.363281 1150.714844 740.757812 1150.003906 739.171875 1149.253906 C 737.585938 1148.503906 736.015625 1147.714844 734.46875 1146.886719 C 732.921875 1146.058594 731.394531 1145.195312 729.886719 1144.292969 C 728.382812 1143.390625 726.898438 1142.449219 725.441406 1141.476562 C 723.980469 1140.5 722.546875 1139.488281 721.136719 1138.445312 C 719.726562 1137.398438 718.34375 1136.320312 716.984375 1135.207031 C 715.628906 1134.089844 714.300781 1132.945312 713 1131.765625 C 711.699219 1130.585938 710.425781 1129.378906 709.1875 1128.136719 C 707.945312 1126.894531 706.734375 1125.625 705.554688 1124.324219 C 704.378906 1123.023438 703.230469 1121.695312 702.117188 1120.335938 C 701.003906 1118.980469 699.925781 1117.597656 698.878906 1116.1875 C 697.832031 1114.777344 696.820312 1113.339844 695.847656 1111.882812 C 694.871094 1110.421875 693.933594 1108.941406 693.03125 1107.433594 C 692.128906 1105.929688 691.261719 1104.402344 690.433594 1102.851562 C 689.609375 1101.304688 688.820312 1099.738281 688.066406 1098.152344 C 687.316406 1096.5625 686.605469 1094.960938 685.933594 1093.335938 C 685.261719 1091.714844 684.632812 1090.078125 684.039062 1088.425781 C 683.449219 1086.773438 682.898438 1085.105469 682.386719 1083.425781 C 681.878906 1081.746094 681.410156 1080.054688 680.984375 1078.351562 C 680.558594 1076.648438 680.171875 1074.9375 679.832031 1073.214844 C 679.488281 1071.492188 679.1875 1069.765625 678.929688 1068.027344 C 678.671875 1066.292969 678.457031 1064.550781 678.285156 1062.804688 C 678.113281 1061.054688 677.984375 1059.304688 677.898438 1057.550781 C 677.8125 1055.800781 677.769531 1054.042969 677.769531 1052.289062 Z M 677.773438 1051.648438 " fill-opacity="1" fill-rule="nonzero"/></svg>