<svg xmlns="http://www.w3.org/2000/svg" xmlns:xlink="http://www.w3.org/1999/xlink" width="2000" zoomAndPan="magnify" viewBox="0 0 1500 1499.999933" height="2000" preserveAspectRatio="xMidYMid meet" version="1.0"><defs><clipPath id="7b131d6171"><path d="M 60.480469 60.480469 L 1439.519531 60.480469 L 1439.519531 1439.519531 L 60.480469 1439.519531 Z M 60.480469 60.480469 " clip-rule="nonzero"/></clipPath><clipPath id="7badba804d"><path d="M 750 60.480469 C 369.1875 60.480469 60.480469 369.1875 60.480469 750 C 60.480469 1130.8125 369.1875 1439.519531 750 1439.519531 C 1130.8125 1439.519531 1439.519531 1130.8125 1439.519531 750 C 1439.519531 369.1875 1130.8125 60.480469 750 60.480469 Z M 750 60.480469 " clip-rule="nonzero"/></clipPath><clipPath id="c50835bb8b"><path d="M 0.480469 0.480469 L 1379.519531 0.480469 L 1379.519531 1379.519531 L 0.480469 1379.519531 Z M 0.480469 0.480469 " clip-rule="nonzero"/></clipPath><clipPath id="342dc48712"><path d="M 690 0.480469 C 309.1875 0.480469 0.480469 309.1875 0.480469 690 C 0.480469 1070.8125 309.1875 1379.519531 690 1379.519531 C 1070.8125 1379.519531 1379.519531 1070.8125 1379.519531 690 C 1379.519531 309.1875 1070.8125 0.480469 690 0.480469 Z M 690 0.480469 " clip-rule="nonzero"/></clipPath><clipPath id="62b897966d"><rect x="0" width="1380" y="0" height="1380"/></clipPath><clipPath id="46fd43350e"><path d="M 277 400.402344 L 1222 400.402344 L 1222 808 L 277 808 Z M 277 400.402344 " clip-rule="nonzero"/></clipPath><clipPath id="fd150d6f36"><path d="M 244.25 477 L 1256 477 L 1256 1099.398438 L 244.25 1099.398438 Z M 244.25 477 " clip-rule="nonzero"/></clipPath></defs><g clip-path="url(#7b131d6171)"><g clip-path="url(#7badba804d)"><g transform="matrix(1, 0, 0, 1, 60, 60)"><g clip-path="url(#62b897966d)"><g clip-path="url(#c50835bb8b)"><g clip-path="url(#342dc48712)"><path fill="#ffffff" d="M 0.480469 0.480469 L 1379.519531 0.480469 L 1379.519531 1379.519531 L 0.480469 1379.519531 Z M 0.480469 0.480469 " fill-opacity="1" fill-rule="nonzero"/></g></g></g></g></g></g><g clip-path="url(#46fd43350e)"><path fill="#5382a1" d="M 750.214844 807.246094 C 792.355469 804.160156 1019.601562 617.140625 1221.265625 432.898438 C 1200.785156 412.996094 1172.882812 400.691406 1142.0625 400.691406 L 358.019531 400.691406 C 326.335938 400.691406 297.699219 413.660156 277.058594 434.554688 C 479.289062 617.835938 707.6875 804.269531 750.214844 807.246094 " fill-opacity="1" fill-rule="nonzero"/></g><g clip-path="url(#fd150d6f36)"><path fill="#5382a1" d="M 1047.632812 655.101562 C 806.046875 859.585938 766.785156 859.585938 750.027344 859.585938 C 733.285156 859.585938 694.082031 859.585938 452.429688 656.78125 C 367.941406 585.875 287.558594 514.324219 249.515625 480.128906 C 246.070312 490.976562 244.195312 502.523438 244.195312 514.511719 L 244.195312 985.820312 C 244.195312 1048.628906 295.117188 1099.550781 357.929688 1099.550781 L 1141.976562 1099.550781 C 1204.832031 1099.550781 1255.796875 1048.601562 1255.796875 985.730469 L 1255.796875 514.421875 C 1255.796875 501.574219 1253.5625 489.277344 1249.632812 477.757812 C 1211.273438 512.527344 1131.46875 584.136719 1047.632812 655.101562 " fill-opacity="1" fill-rule="nonzero"/></g></svg>