<svg xmlns="http://www.w3.org/2000/svg" xmlns:xlink="http://www.w3.org/1999/xlink" width="2000" zoomAndPan="magnify" viewBox="0 0 1500 1499.999933" height="2000" preserveAspectRatio="xMidYMid meet" version="1.0"><defs><g/><clipPath id="1805ef2dc9"><path d="M 309.667969 421.398438 L 1190.167969 421.398438 L 1190.167969 1301.898438 L 309.667969 1301.898438 Z M 309.667969 421.398438 " clip-rule="nonzero"/></clipPath></defs><g clip-path="url(#1805ef2dc9)"><path fill="#eee400" d="M 984.484375 1232.867188 C 907.667969 1232.867188 857.988281 1196.238281 833.777344 1148.339844 L 901.132812 1109.316406 C 918.886719 1138.300781 941.902344 1159.554688 982.703125 1159.554688 C 1016.957031 1159.554688 1038.828125 1142.421875 1038.828125 1118.769531 C 1038.828125 1083.214844 991.367188 1069.285156 957.875 1054.953125 C 898.175781 1029.539062 858.554688 997.613281 858.554688 930.21875 C 858.554688 868.179688 905.835938 820.914062 979.761719 820.914062 C 1032.328125 820.914062 1070.191406 839.230469 1097.34375 887.074219 L 1032.925781 928.460938 C 1018.75 903.046875 1003.394531 893.011719 979.746094 893.011719 C 955.496094 893.011719 940.121094 908.382812 940.121094 928.460938 C 940.121094 953.289062 955.480469 963.328125 990.960938 978.699219 C 1065.3125 1010.554688 1121.574219 1035.613281 1121.574219 1117.589844 C 1121.613281 1192.101562 1063.109375 1232.867188 984.484375 1232.867188 Z M 793.941406 1108.152344 C 793.941406 1193.859375 741.148438 1239.171875 667.855469 1239.171875 C 601.640625 1239.171875 561.984375 1213.847656 542.472656 1169.824219 L 541.328125 1169.824219 L 608.632812 1122.769531 C 621.628906 1145.785156 633.339844 1162.128906 661.691406 1162.128906 C 688.898438 1162.128906 705.890625 1148.355469 705.890625 1107.007812 L 705.890625 817.625 L 793.941406 817.625 Z M 309.667969 1301.898438 L 1190.167969 1301.898438 L 1190.167969 421.398438 L 309.667969 421.398438 Z M 309.667969 1301.898438 " fill-opacity="1" fill-rule="evenodd"/></g><g fill="#ffffff" fill-opacity="1"><g transform="translate(34.854193, 337.157133)"><g><path d="M 127.6875 -154.640625 L 127.6875 -51.46875 C 127.6875 -40.28125 124.925781 -30.707031 119.40625 -22.75 C 113.882812 -14.800781 106.59375 -8.726562 97.53125 -4.53125 C 88.476562 -0.332031 78.648438 1.765625 68.046875 1.765625 C 57.441406 1.765625 47.753906 -0.332031 38.984375 -4.53125 C 30.222656 -8.726562 23.226562 -14.800781 18 -22.75 C 12.769531 -30.707031 10.15625 -40.28125 10.15625 -51.46875 L 10.15625 -71.578125 C 16.195312 -71.578125 22.382812 -71.578125 28.71875 -71.578125 C 35.050781 -71.578125 41.3125 -71.578125 47.5 -71.578125 L 47.5 -52.140625 C 47.5 -46.097656 49.484375 -41.492188 53.453125 -38.328125 C 57.429688 -35.160156 62.296875 -33.578125 68.046875 -33.578125 C 73.785156 -33.578125 78.421875 -35.125 81.953125 -38.21875 C 85.492188 -41.3125 87.265625 -45.953125 87.265625 -52.140625 L 87.265625 -119.515625 L 64.734375 -119.515625 C 64.734375 -125.554688 64.734375 -131.484375 64.734375 -137.296875 C 64.734375 -143.117188 64.734375 -148.898438 64.734375 -154.640625 Z M 127.6875 -154.640625 "/></g></g></g><g fill="#ffffff" fill-opacity="1"><g transform="translate(181.107968, 337.157133)"><g><path d="M 117.96875 0 L 108.921875 -19.4375 L 47.9375 -19.4375 L 38.875 0 L 0.21875 0 L 0.21875 -5.75 L 69.8125 -156.640625 L 86.828125 -156.640625 L 156.640625 -5.75 L 156.640625 0 Z M 96.09375 -53.25 L 78.203125 -93.890625 L 60.75 -53.25 Z M 96.09375 -53.25 "/></g></g></g><g fill="#ffffff" fill-opacity="1"><g transform="translate(326.477965, 337.157133)"><g><path d="M 41.09375 -154.640625 L 77.328125 -67.15625 L 78.421875 -67.15625 L 113.78125 -154.640625 L 151.765625 -154.640625 L 151.765625 -148.6875 L 86.15625 1.765625 L 69.375 1.765625 L 3.09375 -148.6875 L 3.09375 -154.640625 Z M 41.09375 -154.640625 "/></g></g></g><g fill="#ffffff" fill-opacity="1"><g transform="translate(467.650348, 337.157133)"><g><path d="M 117.96875 0 L 108.921875 -19.4375 L 47.9375 -19.4375 L 38.875 0 L 0.21875 0 L 0.21875 -5.75 L 69.8125 -156.640625 L 86.828125 -156.640625 L 156.640625 -5.75 L 156.640625 0 Z M 96.09375 -53.25 L 78.203125 -93.890625 L 60.75 -53.25 Z M 96.09375 -53.25 "/></g></g></g><g fill="#ffffff" fill-opacity="1"><g transform="translate(624.95043, 337.157133)"><g><path d="M 47.0625 -47.28125 C 47.0625 -43.300781 48.679688 -40.132812 51.921875 -37.78125 C 55.160156 -35.425781 59.207031 -33.804688 64.0625 -32.921875 C 68.925781 -32.035156 73.75 -31.921875 78.53125 -32.578125 C 83.320312 -33.242188 87.335938 -34.644531 90.578125 -36.78125 C 93.816406 -38.914062 95.4375 -41.828125 95.4375 -45.515625 C 95.4375 -49.191406 94.144531 -51.988281 91.5625 -53.90625 C 88.988281 -55.820312 85.566406 -57.179688 81.296875 -57.984375 C 77.023438 -58.796875 72.3125 -59.351562 67.15625 -59.65625 C 55.96875 -60.53125 46.175781 -62.550781 37.78125 -65.71875 C 29.382812 -68.882812 22.863281 -73.78125 18.21875 -80.40625 C 13.582031 -87.039062 11.191406 -95.953125 11.046875 -107.140625 C 10.898438 -116.710938 12.925781 -124.882812 17.125 -131.65625 C 21.320312 -138.4375 26.914062 -143.890625 33.90625 -148.015625 C 40.90625 -152.140625 48.640625 -154.863281 57.109375 -156.1875 C 65.578125 -157.519531 74.046875 -157.519531 82.515625 -156.1875 C 90.984375 -154.863281 98.75 -152.140625 105.8125 -148.015625 C 112.882812 -143.890625 118.554688 -138.4375 122.828125 -131.65625 C 127.097656 -124.882812 129.160156 -116.710938 129.015625 -107.140625 C 122.097656 -107.140625 115.800781 -107.140625 110.125 -107.140625 C 104.457031 -107.140625 98.238281 -107.140625 91.46875 -107.140625 C 91.46875 -111.265625 90.066406 -114.503906 87.265625 -116.859375 C 84.460938 -119.222656 80.960938 -120.769531 76.765625 -121.5 C 72.566406 -122.238281 68.367188 -122.164062 64.171875 -121.28125 C 59.972656 -120.394531 56.398438 -118.8125 53.453125 -116.53125 C 50.515625 -114.25 48.898438 -111.269531 48.609375 -107.59375 C 48.304688 -103.757812 49.257812 -100.773438 51.46875 -98.640625 C 53.675781 -96.503906 56.695312 -94.992188 60.53125 -94.109375 C 64.363281 -93.222656 68.5625 -92.488281 73.125 -91.90625 C 80.78125 -91.019531 88.21875 -89.875 95.4375 -88.46875 C 102.65625 -87.070312 109.171875 -84.863281 114.984375 -81.84375 C 120.804688 -78.832031 125.410156 -74.414062 128.796875 -68.59375 C 132.179688 -62.78125 133.875 -55.007812 133.875 -45.28125 C 133.875 -36.007812 131.59375 -28.054688 127.03125 -21.421875 C 122.46875 -14.796875 116.46875 -9.457031 109.03125 -5.40625 C 101.59375 -1.363281 93.378906 1.316406 84.390625 2.640625 C 75.410156 3.972656 66.460938 3.9375 57.546875 2.53125 C 48.640625 1.132812 40.503906 -1.625 33.140625 -5.75 C 25.773438 -9.875 19.84375 -15.394531 15.34375 -22.3125 C 10.851562 -29.238281 8.6875 -37.5625 8.84375 -47.28125 C 15.46875 -47.28125 21.796875 -47.28125 27.828125 -47.28125 C 33.867188 -47.28125 40.28125 -47.28125 47.0625 -47.28125 Z M 47.0625 -47.28125 "/></g></g></g><g fill="#ffffff" fill-opacity="1"><g transform="translate(768.111152, 337.157133)"><g><path d="M 10.390625 -77.328125 C 10.390625 -90.429688 12.671875 -101.914062 17.234375 -111.78125 C 21.796875 -121.65625 27.867188 -129.90625 35.453125 -136.53125 C 43.035156 -143.15625 51.503906 -148.125 60.859375 -151.4375 C 70.210938 -154.75 79.820312 -156.40625 89.6875 -156.40625 C 97.644531 -156.40625 105.597656 -155.265625 113.546875 -152.984375 C 121.503906 -150.703125 128.90625 -147.203125 135.75 -142.484375 C 142.601562 -137.773438 148.382812 -131.703125 153.09375 -124.265625 C 157.8125 -116.828125 160.90625 -107.953125 162.375 -97.640625 C 155.601562 -97.640625 149.125 -97.640625 142.9375 -97.640625 C 136.75 -97.640625 130.269531 -97.640625 123.5 -97.640625 C 120.695312 -105.453125 116.421875 -111.195312 110.671875 -114.875 C 104.929688 -118.5625 97.9375 -120.40625 89.6875 -120.40625 C 78.050781 -120.40625 68.734375 -116.425781 61.734375 -108.46875 C 54.742188 -100.519531 51.25 -90.140625 51.25 -77.328125 C 51.25 -69.816406 52.832031 -62.816406 56 -56.328125 C 59.164062 -49.847656 63.617188 -44.617188 69.359375 -40.640625 C 75.109375 -36.671875 81.882812 -34.613281 89.6875 -34.46875 C 98.082031 -34.46875 105.410156 -36.566406 111.671875 -40.765625 C 117.929688 -44.960938 122.09375 -51.179688 124.15625 -59.421875 C 130.78125 -59.421875 137.222656 -59.421875 143.484375 -59.421875 C 149.742188 -59.421875 156.265625 -59.421875 163.046875 -59.421875 C 161.566406 -48.523438 158.503906 -39.210938 153.859375 -31.484375 C 149.222656 -23.753906 143.484375 -17.457031 136.640625 -12.59375 C 129.796875 -7.726562 122.320312 -4.15625 114.21875 -1.875 C 106.113281 0.40625 97.9375 1.546875 89.6875 1.546875 C 79.820312 1.546875 70.210938 -0.0703125 60.859375 -3.3125 C 51.503906 -6.550781 43.035156 -11.484375 35.453125 -18.109375 C 27.867188 -24.742188 21.796875 -32.992188 17.234375 -42.859375 C 12.671875 -52.722656 10.390625 -64.210938 10.390625 -77.328125 Z M 10.390625 -77.328125 "/></g></g></g><g fill="#ffffff" fill-opacity="1"><g transform="translate(941.759852, 337.157133)"><g><path d="M 119.953125 -54.78125 L 150.234375 -5.75 L 150.234375 0 L 106.046875 0 L 79.53125 -45.515625 L 58.984375 -45.515625 L 58.984375 0 C 52.359375 0 45.726562 0 39.09375 0 C 32.46875 0 25.914062 0 19.4375 0 C 19.4375 -25.769531 19.4375 -51.539062 19.4375 -77.3125 C 19.4375 -103.09375 19.4375 -128.867188 19.4375 -154.640625 C 30.632812 -154.640625 41.9375 -154.640625 53.34375 -154.640625 C 64.757812 -154.640625 76.066406 -154.640625 87.265625 -154.640625 C 97.421875 -154.640625 106.179688 -152.796875 113.546875 -149.109375 C 120.910156 -145.429688 126.875 -140.570312 131.4375 -134.53125 C 136.007812 -128.5 139.210938 -121.835938 141.046875 -114.546875 C 142.890625 -107.253906 143.332031 -99.851562 142.375 -92.34375 C 141.425781 -84.832031 139.070312 -77.800781 135.3125 -71.25 C 131.5625 -64.695312 126.441406 -59.207031 119.953125 -54.78125 Z M 87.265625 -80.640625 C 91.535156 -80.640625 94.992188 -81.925781 97.640625 -84.5 C 100.296875 -87.082031 102.101562 -90.285156 103.0625 -94.109375 C 104.019531 -97.941406 104.054688 -101.769531 103.171875 -105.59375 C 102.285156 -109.425781 100.550781 -112.664062 97.96875 -115.3125 C 95.394531 -117.96875 91.828125 -119.296875 87.265625 -119.296875 C 82.703125 -119.441406 78.023438 -119.476562 73.234375 -119.40625 C 68.453125 -119.332031 63.703125 -119.296875 58.984375 -119.296875 C 58.984375 -112.960938 58.984375 -106.484375 58.984375 -99.859375 C 58.984375 -93.234375 58.984375 -86.828125 58.984375 -80.640625 Z M 87.265625 -80.640625 "/></g></g></g><g fill="#ffffff" fill-opacity="1"><g transform="translate(1096.187966, 337.157133)"><g><path d="M 65.609375 -34.6875 L 85.28125 -34.6875 L 85.28125 0 L 6.84375 0 L 6.84375 -34.6875 L 26.515625 -34.6875 L 26.515625 -120.1875 L 8.390625 -120.1875 L 8.390625 -154.640625 L 83.734375 -154.640625 L 83.734375 -120.1875 L 65.609375 -120.1875 Z M 65.609375 -34.6875 "/></g></g></g><g fill="#ffffff" fill-opacity="1"><g transform="translate(1187.651795, 337.157133)"><g><path d="M 59.203125 0 C 52.578125 0 45.945312 0 39.3125 0 C 32.6875 0 26.132812 0 19.65625 0 C 19.65625 -25.769531 19.65625 -51.539062 19.65625 -77.3125 C 19.65625 -103.09375 19.65625 -128.867188 19.65625 -154.640625 C 30.851562 -154.640625 42.15625 -154.640625 53.5625 -154.640625 C 64.976562 -154.640625 76.359375 -154.640625 87.703125 -154.640625 C 98.304688 -154.640625 107.363281 -152.539062 114.875 -148.34375 C 122.382812 -144.144531 128.421875 -138.617188 132.984375 -131.765625 C 137.554688 -124.921875 140.578125 -117.410156 142.046875 -109.234375 C 143.523438 -101.066406 143.523438 -92.894531 142.046875 -84.71875 C 140.578125 -76.550781 137.554688 -69.039062 132.984375 -62.1875 C 128.421875 -55.34375 122.382812 -49.859375 114.875 -45.734375 C 107.363281 -41.609375 98.304688 -39.546875 87.703125 -39.546875 L 59.203125 -39.546875 Z M 87.484375 -75.109375 C 91.753906 -75.109375 95.25 -76.582031 97.96875 -79.53125 C 100.695312 -82.476562 102.539062 -86.160156 103.5 -90.578125 C 104.457031 -94.992188 104.53125 -99.375 103.71875 -103.71875 C 102.90625 -108.0625 101.132812 -111.742188 98.40625 -114.765625 C 95.6875 -117.785156 92.046875 -119.296875 87.484375 -119.296875 C 82.921875 -119.441406 78.207031 -119.476562 73.34375 -119.40625 C 68.488281 -119.332031 63.773438 -119.296875 59.203125 -119.296875 C 59.203125 -115.171875 59.203125 -110.457031 59.203125 -105.15625 C 59.203125 -99.851562 59.203125 -94.585938 59.203125 -89.359375 C 59.203125 -84.128906 59.203125 -79.378906 59.203125 -75.109375 Z M 87.484375 -75.109375 "/></g></g></g><g fill="#ffffff" fill-opacity="1"><g transform="translate(1340.975144, 337.157133)"><g><path d="M 42.421875 -119.296875 L 4.421875 -119.296875 C 4.421875 -125.335938 4.421875 -131.265625 4.421875 -137.078125 C 4.421875 -142.898438 4.421875 -148.753906 4.421875 -154.640625 L 119.296875 -154.640625 C 119.296875 -148.753906 119.296875 -142.898438 119.296875 -137.078125 C 119.296875 -131.265625 119.296875 -125.335938 119.296875 -119.296875 L 81.515625 -119.296875 L 81.515625 0 C 75.035156 0 68.519531 0 61.96875 0 C 55.414062 0 48.898438 0 42.421875 0 Z M 42.421875 -119.296875 "/></g></g></g></svg>