<svg xmlns="http://www.w3.org/2000/svg" xmlns:xlink="http://www.w3.org/1999/xlink" width="2000" zoomAndPan="magnify" viewBox="0 0 1500 1499.999933" height="2000" preserveAspectRatio="xMidYMid meet" version="1.0"><defs><g/><clipPath id="e5660587bb"><path d="M 309.667969 431.9375 L 1190.167969 431.9375 L 1190.167969 1312.4375 L 309.667969 1312.4375 Z M 309.667969 431.9375 " clip-rule="nonzero"/></clipPath></defs><g clip-path="url(#e5660587bb)"><path fill="#ffffff" d="M 750 431.9375 C 506.8125 431.9375 309.667969 629.082031 309.667969 872.269531 C 309.667969 1115.457031 506.8125 1312.601562 750 1312.601562 C 993.1875 1312.601562 1190.332031 1115.457031 1190.332031 872.269531 C 1190.332031 629.082031 993.1875 431.9375 750 431.9375 Z M 750 1279.25 C 525.230469 1279.25 343.019531 1097.039062 343.019531 872.269531 C 343.019531 647.503906 525.230469 465.289062 750 465.289062 C 974.765625 465.289062 1156.980469 647.503906 1156.980469 872.269531 C 1156.980469 1097.039062 974.765625 1279.25 750 1279.25 Z M 750 1279.25 " fill-opacity="1" fill-rule="nonzero"/></g><path fill="#ffffff" d="M 698.320312 1088.109375 C 687.277344 1089.167969 678.453125 1090.382812 669.59375 1090.800781 C 619.351562 1093.175781 582.15625 1073.371094 559.597656 1027.183594 C 552.414062 1012.472656 543.21875 998.589844 533.640625 985.265625 C 527.886719 977.261719 519.828125 970.832031 512.382812 964.164062 L 512.292969 964.085938 C 507.691406 960.035156 509.722656 952.457031 515.769531 951.441406 C 522.867188 950.25 529.484375 951.53125 535.933594 953.175781 C 556.136719 958.316406 569.105469 972.636719 579.4375 989.765625 C 602.800781 1028.503906 643.039062 1044.660156 686.546875 1033.121094 C 693.933594 1031.160156 697.191406 1027.980469 698.796875 1019.925781 C 700.671875 1010.527344 703.222656 1001.265625 705.960938 991.824219 C 706.164062 991.132812 706.328125 990.429688 706.460938 989.71875 C 706.589844 989.007812 706.683594 988.292969 706.738281 987.574219 C 706.796875 986.855469 706.816406 986.132812 706.800781 985.410156 C 706.785156 984.691406 706.734375 983.972656 706.644531 983.253906 C 706.558594 982.539062 706.433594 981.828125 706.273438 981.125 C 706.109375 980.417969 705.914062 979.726562 705.683594 979.039062 C 705.453125 978.355469 705.1875 977.6875 704.890625 977.027344 C 704.589844 976.371094 704.257812 975.730469 703.894531 975.109375 C 703.53125 974.484375 703.136719 973.878906 702.710938 973.296875 C 702.285156 972.714844 701.832031 972.152344 701.347656 971.613281 C 700.867188 971.078125 700.359375 970.566406 699.824219 970.078125 C 699.292969 969.59375 698.734375 969.136719 698.152344 968.707031 C 697.574219 968.277344 696.972656 967.878906 696.351562 967.507812 C 695.730469 967.140625 695.09375 966.804688 694.4375 966.5 C 693.78125 966.195312 693.113281 965.925781 692.429688 965.691406 C 691.75 965.453125 691.054688 965.253906 690.355469 965.085938 L 690.109375 965.027344 C 644.964844 954.226562 605.964844 934.117188 580.835938 892.859375 C 567.398438 870.800781 560.753906 846.5 561.09375 821.179688 C 561.480469 792.457031 564.023438 763.671875 567.320312 735.109375 C 569.644531 714.996094 578.960938 697.1875 593.421875 682.726562 C 598.460938 677.683594 598.886719 673.457031 596.453125 666.929688 C 586.5 640.207031 588.226562 613.429688 597.066406 586.648438 C 599.558594 579.089844 603.097656 578.011719 610.328125 580.285156 C 632.699219 587.328125 649.386719 601.882812 664.054688 619.316406 L 664.203125 619.492188 C 665.121094 620.59375 666.113281 621.621094 667.183594 622.574219 C 668.25 623.527344 669.386719 624.394531 670.585938 625.179688 C 671.785156 625.960938 673.035156 626.652344 674.335938 627.25 C 675.636719 627.847656 676.976562 628.34375 678.351562 628.742188 C 679.726562 629.140625 681.125 629.433594 682.542969 629.621094 C 683.964844 629.8125 685.390625 629.894531 686.820312 629.871094 C 688.253906 629.847656 689.675781 629.71875 691.089844 629.484375 C 692.5 629.25 693.890625 628.910156 695.25 628.46875 C 741.671875 613.242188 812.097656 613.042969 855.878906 628.109375 C 857.246094 628.574219 858.640625 628.933594 860.0625 629.1875 C 861.484375 629.441406 862.917969 629.585938 864.359375 629.625 C 865.804688 629.664062 867.242188 629.59375 868.675781 629.414062 C 870.109375 629.238281 871.523438 628.953125 872.914062 628.5625 C 874.304688 628.171875 875.65625 627.675781 876.972656 627.082031 C 878.289062 626.488281 879.554688 625.796875 880.765625 625.011719 C 881.976562 624.226562 883.125 623.355469 884.203125 622.398438 C 885.285156 621.4375 886.289062 620.40625 887.214844 619.296875 L 887.355469 619.128906 C 902.046875 601.699219 918.808594 587.257812 941.164062 580.195312 C 948.664062 577.828125 951.859375 579.628906 954.230469 586.921875 C 962.953125 613.71875 964.441406 640.339844 955.003906 667.339844 C 953.679688 671.140625 953.730469 677.75 956.097656 680.152344 C 976.140625 700.484375 984.914062 725.722656 987.140625 753.066406 C 989.292969 779.484375 991.621094 806.355469 989.167969 832.59375 C 982.789062 900.820312 941.300781 940.558594 878.21875 960.3125 C 872.820312 962 867.335938 963.417969 861.738281 964.742188 C 861.011719 964.914062 860.296875 965.121094 859.59375 965.367188 C 858.890625 965.617188 858.199219 965.898438 857.527344 966.214844 C 856.851562 966.535156 856.195312 966.886719 855.558594 967.273438 C 854.921875 967.660156 854.304688 968.082031 853.710938 968.53125 C 853.117188 968.984375 852.550781 969.464844 852.007812 969.976562 C 851.460938 970.488281 850.949219 971.027344 850.460938 971.589844 C 849.972656 972.15625 849.519531 972.746094 849.09375 973.359375 C 848.667969 973.96875 848.273438 974.601562 847.914062 975.257812 C 847.558594 975.910156 847.234375 976.582031 846.945312 977.269531 C 846.65625 977.957031 846.402344 978.65625 846.1875 979.371094 C 845.972656 980.085938 845.792969 980.808594 845.65625 981.542969 C 845.515625 982.273438 845.414062 983.011719 845.351562 983.757812 C 845.289062 984.5 845.265625 985.242188 845.28125 985.988281 C 845.296875 986.734375 845.351562 987.476562 845.445312 988.21875 C 845.535156 988.957031 845.667969 989.691406 845.839844 990.417969 C 846.007812 991.144531 846.214844 991.859375 846.460938 992.5625 C 855.054688 1017.464844 853.742188 1044.070312 853.609375 1070.503906 C 853.578125 1076.578125 853.554688 1082.65625 853.542969 1088.738281 C 853.542969 1089.992188 853.507812 1091.246094 853.445312 1092.5 C 853.378906 1093.753906 853.285156 1095.003906 853.160156 1096.25 C 853.035156 1097.5 852.878906 1098.742188 852.691406 1099.984375 C 852.503906 1101.222656 852.289062 1102.457031 852.042969 1103.6875 C 851.792969 1104.917969 851.519531 1106.140625 851.210938 1107.355469 C 850.902344 1108.574219 850.566406 1109.78125 850.199219 1110.980469 C 849.835938 1112.179688 849.4375 1113.371094 849.015625 1114.550781 C 848.589844 1115.730469 848.136719 1116.898438 847.65625 1118.058594 C 847.171875 1119.214844 846.664062 1120.363281 846.125 1121.496094 C 845.585938 1122.628906 845.023438 1123.746094 844.429688 1124.851562 C 843.835938 1125.957031 843.214844 1127.046875 842.570312 1128.121094 C 841.921875 1129.199219 841.25 1130.257812 840.554688 1131.296875 C 839.855469 1132.339844 839.132812 1133.363281 838.382812 1134.371094 C 837.632812 1135.378906 836.863281 1136.363281 836.066406 1137.332031 C 835.265625 1138.300781 834.449219 1139.25 833.605469 1140.179688 C 832.761719 1141.109375 831.894531 1142.015625 831.007812 1142.902344 C 830.117188 1143.785156 829.210938 1144.648438 828.28125 1145.492188 C 827.347656 1146.332031 826.398438 1147.152344 825.429688 1147.945312 C 824.457031 1148.742188 823.46875 1149.511719 822.460938 1150.257812 C 821.453125 1151.003906 820.425781 1151.726562 819.382812 1152.421875 C 818.339844 1153.117188 817.28125 1153.785156 816.203125 1154.429688 C 815.128906 1155.074219 814.035156 1155.691406 812.929688 1156.28125 C 811.824219 1156.871094 810.703125 1157.4375 809.566406 1157.972656 C 808.433594 1158.507812 807.285156 1159.015625 806.128906 1159.492188 C 804.96875 1159.972656 803.796875 1160.421875 802.617188 1160.84375 C 801.4375 1161.265625 800.246094 1161.660156 799.042969 1162.023438 C 797.84375 1162.386719 796.636719 1162.722656 795.417969 1163.027344 C 794.203125 1163.328125 792.976562 1163.605469 791.75 1163.847656 C 790.519531 1164.09375 789.28125 1164.308594 788.042969 1164.492188 C 786.800781 1164.675781 785.554688 1164.828125 784.308594 1164.949219 C 783.058594 1165.074219 781.808594 1165.164062 780.554688 1165.226562 C 779.304688 1165.289062 778.050781 1165.316406 776.796875 1165.316406 L 775.066406 1165.316406 C 773.8125 1165.316406 772.554688 1165.289062 771.300781 1165.226562 C 770.046875 1165.164062 768.792969 1165.070312 767.542969 1164.949219 C 766.292969 1164.824219 765.046875 1164.671875 763.804688 1164.488281 C 762.5625 1164.304688 761.324219 1164.089844 760.09375 1163.84375 C 758.863281 1163.597656 757.636719 1163.324219 756.417969 1163.019531 C 755.199219 1162.710938 753.988281 1162.378906 752.789062 1162.011719 C 751.585938 1161.648438 750.394531 1161.253906 749.210938 1160.832031 C 748.027344 1160.410156 746.855469 1159.957031 745.695312 1159.476562 C 744.535156 1158.996094 743.386719 1158.484375 742.25 1157.949219 C 741.117188 1157.410156 739.996094 1156.847656 738.886719 1156.253906 C 737.777344 1155.664062 736.6875 1155.042969 735.609375 1154.398438 C 734.53125 1153.753906 733.472656 1153.082031 732.425781 1152.382812 C 731.382812 1151.683594 730.355469 1150.960938 729.347656 1150.214844 C 728.335938 1149.464844 727.347656 1148.691406 726.375 1147.898438 C 725.40625 1147.101562 724.457031 1146.28125 723.523438 1145.4375 C 722.59375 1144.59375 721.683594 1143.726562 720.796875 1142.839844 C 719.90625 1141.949219 719.042969 1141.039062 718.199219 1140.109375 C 717.355469 1139.179688 716.535156 1138.226562 715.738281 1137.257812 C 714.941406 1136.285156 714.167969 1135.296875 713.421875 1134.289062 C 712.671875 1133.277344 711.949219 1132.253906 711.25 1131.207031 C 710.554688 1130.164062 709.882812 1129.101562 709.234375 1128.023438 C 708.589844 1126.949219 707.972656 1125.855469 707.378906 1124.746094 C 706.785156 1123.640625 706.222656 1122.519531 705.683594 1121.382812 C 705.148438 1120.246094 704.640625 1119.097656 704.160156 1117.9375 C 703.679688 1116.777344 703.226562 1115.605469 702.804688 1114.425781 C 702.378906 1113.242188 701.984375 1112.050781 701.621094 1110.847656 C 701.257812 1109.644531 700.921875 1108.433594 700.617188 1107.214844 C 700.3125 1105.996094 700.035156 1104.773438 699.792969 1103.539062 C 699.546875 1102.308594 699.332031 1101.070312 699.148438 1099.828125 C 698.964844 1098.585938 698.808594 1097.339844 698.6875 1096.089844 C 698.5625 1094.839844 698.46875 1093.589844 698.410156 1092.332031 C 698.347656 1091.078125 698.316406 1089.824219 698.316406 1088.566406 Z M 698.320312 1088.109375 " fill-opacity="1" fill-rule="nonzero"/><g fill="#ffffff" fill-opacity="1"><g transform="translate(79.033877, 337.157178)"><g><path d="M 10.15625 -77.328125 C 10.15625 -90.578125 12.4375 -102.132812 17 -112 C 21.570312 -121.875 27.648438 -130.125 35.234375 -136.75 C 42.816406 -143.375 51.285156 -148.34375 60.640625 -151.65625 C 69.992188 -154.976562 79.601562 -156.640625 89.46875 -156.640625 C 99.925781 -156.640625 110.125 -154.722656 120.0625 -150.890625 C 130.007812 -147.054688 138.628906 -141.125 145.921875 -133.09375 C 153.210938 -125.070312 158.109375 -114.65625 160.609375 -101.84375 L 121.734375 -101.84375 C 118.492188 -108.46875 114.257812 -113.21875 109.03125 -116.09375 C 103.800781 -118.96875 97.28125 -120.40625 89.46875 -120.40625 C 81.226562 -120.40625 74.234375 -118.453125 68.484375 -114.546875 C 62.742188 -110.640625 58.398438 -105.445312 55.453125 -98.96875 C 52.503906 -92.488281 51.03125 -85.273438 51.03125 -77.328125 C 51.03125 -64.515625 54.523438 -54.238281 61.515625 -46.5 C 68.515625 -38.769531 77.832031 -34.90625 89.46875 -34.90625 C 97.425781 -34.90625 104.054688 -36.226562 109.359375 -38.875 C 114.660156 -41.53125 119.078125 -46.539062 122.609375 -53.90625 L 89.6875 -53.90625 L 89.6875 -88.140625 L 162.8125 -88.140625 C 163.257812 -80.484375 163.296875 -72.898438 162.921875 -65.390625 C 162.554688 -57.878906 161.050781 -50.367188 158.40625 -42.859375 C 154.71875 -32.109375 149.265625 -23.453125 142.046875 -16.890625 C 134.835938 -10.335938 126.664062 -5.585938 117.53125 -2.640625 C 108.394531 0.296875 99.039062 1.765625 89.46875 1.765625 C 79.601562 1.765625 69.992188 0.109375 60.640625 -3.203125 C 51.285156 -6.515625 42.816406 -11.445312 35.234375 -18 C 27.648438 -24.5625 21.570312 -32.773438 17 -42.640625 C 12.4375 -52.503906 10.15625 -64.066406 10.15625 -77.328125 Z M 10.15625 -77.328125 "/></g></g></g><g fill="#ffffff" fill-opacity="1"><g transform="translate(253.566324, 337.157178)"><g><path d="M 65.609375 -34.6875 L 85.28125 -34.6875 L 85.28125 0 L 6.84375 0 L 6.84375 -34.6875 L 26.515625 -34.6875 L 26.515625 -120.1875 L 8.390625 -120.1875 L 8.390625 -154.640625 L 83.734375 -154.640625 L 83.734375 -120.1875 L 65.609375 -120.1875 Z M 65.609375 -34.6875 "/></g></g></g><g fill="#ffffff" fill-opacity="1"><g transform="translate(345.030164, 337.157178)"><g><path d="M 42.421875 -119.296875 L 4.421875 -119.296875 C 4.421875 -125.335938 4.421875 -131.265625 4.421875 -137.078125 C 4.421875 -142.898438 4.421875 -148.753906 4.421875 -154.640625 L 119.296875 -154.640625 C 119.296875 -148.753906 119.296875 -142.898438 119.296875 -137.078125 C 119.296875 -131.265625 119.296875 -125.335938 119.296875 -119.296875 L 81.515625 -119.296875 L 81.515625 0 C 75.035156 0 68.519531 0 61.96875 0 C 55.414062 0 48.898438 0 42.421875 0 Z M 42.421875 -119.296875 "/></g></g></g><g fill="#ffffff" fill-opacity="1"><g transform="translate(469.191223, 337.157178)"><g><path d="M 79.96875 -157.734375 L 21.203125 0 L 2.203125 0 L 60.96875 -157.734375 Z M 79.96875 -157.734375 "/></g></g></g><g fill="#ffffff" fill-opacity="1"><g transform="translate(551.376088, 337.157178)"><g><path d="M 10.15625 -77.328125 C 10.15625 -90.578125 12.4375 -102.132812 17 -112 C 21.570312 -121.875 27.648438 -130.125 35.234375 -136.75 C 42.816406 -143.375 51.285156 -148.34375 60.640625 -151.65625 C 69.992188 -154.976562 79.601562 -156.640625 89.46875 -156.640625 C 99.925781 -156.640625 110.125 -154.722656 120.0625 -150.890625 C 130.007812 -147.054688 138.628906 -141.125 145.921875 -133.09375 C 153.210938 -125.070312 158.109375 -114.65625 160.609375 -101.84375 L 121.734375 -101.84375 C 118.492188 -108.46875 114.257812 -113.21875 109.03125 -116.09375 C 103.800781 -118.96875 97.28125 -120.40625 89.46875 -120.40625 C 81.226562 -120.40625 74.234375 -118.453125 68.484375 -114.546875 C 62.742188 -110.640625 58.398438 -105.445312 55.453125 -98.96875 C 52.503906 -92.488281 51.03125 -85.273438 51.03125 -77.328125 C 51.03125 -64.515625 54.523438 -54.238281 61.515625 -46.5 C 68.515625 -38.769531 77.832031 -34.90625 89.46875 -34.90625 C 97.425781 -34.90625 104.054688 -36.226562 109.359375 -38.875 C 114.660156 -41.53125 119.078125 -46.539062 122.609375 -53.90625 L 89.6875 -53.90625 L 89.6875 -88.140625 L 162.8125 -88.140625 C 163.257812 -80.484375 163.296875 -72.898438 162.921875 -65.390625 C 162.554688 -57.878906 161.050781 -50.367188 158.40625 -42.859375 C 154.71875 -32.109375 149.265625 -23.453125 142.046875 -16.890625 C 134.835938 -10.335938 126.664062 -5.585938 117.53125 -2.640625 C 108.394531 0.296875 99.039062 1.765625 89.46875 1.765625 C 79.601562 1.765625 69.992188 0.109375 60.640625 -3.203125 C 51.285156 -6.515625 42.816406 -11.445312 35.234375 -18 C 27.648438 -24.5625 21.570312 -32.773438 17 -42.640625 C 12.4375 -52.503906 10.15625 -64.066406 10.15625 -77.328125 Z M 10.15625 -77.328125 "/></g></g></g><g fill="#ffffff" fill-opacity="1"><g transform="translate(725.908543, 337.157178)"><g><path d="M 65.609375 -34.6875 L 85.28125 -34.6875 L 85.28125 0 L 6.84375 0 L 6.84375 -34.6875 L 26.515625 -34.6875 L 26.515625 -120.1875 L 8.390625 -120.1875 L 8.390625 -154.640625 L 83.734375 -154.640625 L 83.734375 -120.1875 L 65.609375 -120.1875 Z M 65.609375 -34.6875 "/></g></g></g><g fill="#ffffff" fill-opacity="1"><g transform="translate(817.372372, 337.157178)"><g><path d="M 42.421875 -119.296875 L 4.421875 -119.296875 C 4.421875 -125.335938 4.421875 -131.265625 4.421875 -137.078125 C 4.421875 -142.898438 4.421875 -148.753906 4.421875 -154.640625 L 119.296875 -154.640625 C 119.296875 -148.753906 119.296875 -142.898438 119.296875 -137.078125 C 119.296875 -131.265625 119.296875 -125.335938 119.296875 -119.296875 L 81.515625 -119.296875 L 81.515625 0 C 75.035156 0 68.519531 0 61.96875 0 C 55.414062 0 48.898438 0 42.421875 0 Z M 42.421875 -119.296875 "/></g></g></g><g fill="#ffffff" fill-opacity="1"><g transform="translate(941.533433, 337.157178)"><g><path d="M 148.453125 -154.640625 L 148.453125 0 C 141.679688 0 134.941406 0 128.234375 0 C 121.535156 0 114.800781 0 108.03125 0 L 108.03125 -62.078125 L 60.3125 -62.078125 L 60.3125 0 C 53.539062 0 46.765625 0 39.984375 0 C 33.210938 0 26.515625 0 19.890625 0 L 19.890625 -154.640625 C 26.515625 -154.640625 33.210938 -154.640625 39.984375 -154.640625 C 46.765625 -154.640625 53.539062 -154.640625 60.3125 -154.640625 L 60.3125 -98.53125 L 108.03125 -98.53125 L 108.03125 -154.640625 C 114.800781 -154.640625 121.535156 -154.640625 128.234375 -154.640625 C 134.941406 -154.640625 141.679688 -154.640625 148.453125 -154.640625 Z M 148.453125 -154.640625 "/></g></g></g><g fill="#ffffff" fill-opacity="1"><g transform="translate(1109.879851, 337.157178)"><g><path d="M 79.53125 -33.359375 C 83.363281 -33.359375 87.082031 -34.054688 90.6875 -35.453125 C 94.289062 -36.859375 97.234375 -38.957031 99.515625 -41.75 C 101.804688 -44.550781 102.953125 -48.015625 102.953125 -52.140625 L 102.953125 -154.640625 C 109.285156 -154.640625 115.617188 -154.640625 121.953125 -154.640625 C 128.285156 -154.640625 134.546875 -154.640625 140.734375 -154.640625 L 140.734375 -51.46875 C 140.734375 -40.132812 137.859375 -30.453125 132.109375 -22.421875 C 126.367188 -14.398438 118.820312 -8.289062 109.46875 -4.09375 C 100.113281 0.101562 90.132812 2.203125 79.53125 2.203125 C 71.582031 2.203125 63.960938 0.988281 56.671875 -1.4375 C 49.378906 -3.863281 42.820312 -7.359375 37 -11.921875 C 31.1875 -16.492188 26.582031 -22.09375 23.1875 -28.71875 C 19.800781 -35.34375 18.109375 -42.925781 18.109375 -51.46875 L 18.109375 -154.640625 C 24.296875 -154.640625 30.59375 -154.640625 37 -154.640625 C 43.40625 -154.640625 49.703125 -154.640625 55.890625 -154.640625 L 55.890625 -52.140625 C 55.890625 -48.015625 57.066406 -44.550781 59.421875 -41.75 C 61.785156 -38.957031 64.769531 -36.859375 68.375 -35.453125 C 71.976562 -34.054688 75.695312 -33.359375 79.53125 -33.359375 Z M 79.53125 -33.359375 "/></g></g></g><g fill="#ffffff" fill-opacity="1"><g transform="translate(1269.389238, 337.157178)"><g><path d="M 133.875 -107.140625 C 133.875 -102.578125 132.804688 -97.753906 130.671875 -92.671875 C 128.535156 -87.597656 125.554688 -83.515625 121.734375 -80.421875 C 128.066406 -77.179688 132.738281 -72.832031 135.75 -67.375 C 138.769531 -61.925781 140.28125 -55.742188 140.28125 -48.828125 C 140.28125 -39.835938 138.4375 -31.660156 134.75 -24.296875 C 131.070312 -16.929688 125.695312 -11.039062 118.625 -6.625 C 111.5625 -2.207031 102.726562 0 92.125 0 L 19.65625 0 L 19.65625 -154.640625 L 85.71875 -154.640625 C 94.695312 -154.640625 102.796875 -152.539062 110.015625 -148.34375 C 117.234375 -144.144531 123.015625 -138.472656 127.359375 -131.328125 C 131.703125 -124.191406 133.875 -116.128906 133.875 -107.140625 Z M 89.25 -61.421875 L 57.875 -61.421875 L 57.875 -35.125 L 89.46875 -35.125 C 93.445312 -35.125 96.429688 -36.445312 98.421875 -39.09375 C 100.410156 -41.75 101.367188 -44.804688 101.296875 -48.265625 C 101.222656 -51.734375 100.191406 -54.789062 98.203125 -57.4375 C 96.210938 -60.09375 93.226562 -61.421875 89.25 -61.421875 Z M 82.625 -119.296875 L 57.875 -119.296875 L 57.875 -94.328125 L 82.84375 -94.328125 C 86.820312 -94.328125 89.765625 -95.578125 91.671875 -98.078125 C 93.585938 -100.585938 94.546875 -103.5 94.546875 -106.8125 C 94.546875 -110.125 93.550781 -113.03125 91.5625 -115.53125 C 89.582031 -118.039062 86.601562 -119.296875 82.625 -119.296875 Z M 82.625 -119.296875 "/></g></g></g></svg>