<svg xmlns="http://www.w3.org/2000/svg" xmlns:xlink="http://www.w3.org/1999/xlink" width="2000" zoomAndPan="magnify" viewBox="0 0 1500 1499.999933" height="2000" preserveAspectRatio="xMidYMid meet" version="1.0"><defs><g/><clipPath id="1c37fc3adc"><rect x="0" width="1444" y="0" height="203"/></clipPath></defs><path fill="#68bd45" d="M 1083.167969 479.835938 C 1071.683594 507.363281 1057.136719 533.164062 1039.527344 557.238281 C 1034.75 552.441406 1029.859375 547.769531 1024.855469 543.21875 C 1019.847656 538.664062 1014.734375 534.242188 1009.507812 529.941406 C 1004.28125 525.644531 998.953125 521.476562 993.523438 517.441406 C 988.089844 513.40625 982.5625 509.507812 976.9375 505.75 C 971.3125 501.988281 965.597656 498.367188 959.792969 494.890625 C 953.988281 491.414062 948.101562 488.082031 942.132812 484.894531 C 936.164062 481.710938 930.117188 478.675781 924 475.789062 C 917.878906 472.902344 911.691406 470.167969 905.4375 467.589844 C 899.179688 465.007812 892.867188 462.585938 886.492188 460.320312 C 880.113281 458.050781 873.6875 455.945312 867.207031 453.996094 C 860.726562 452.046875 854.203125 450.261719 847.636719 448.636719 C 841.066406 447.011719 834.464844 445.550781 827.824219 444.253906 C 821.183594 442.953125 814.511719 441.820312 807.816406 440.855469 C 801.121094 439.886719 794.402344 439.085938 787.667969 438.453125 C 780.929688 437.816406 774.183594 437.351562 767.421875 437.050781 C 760.664062 436.75 753.898438 436.617188 747.132812 436.652344 C 740.367188 436.6875 733.605469 436.890625 726.851562 437.257812 C 720.09375 437.628906 713.351562 438.167969 706.621094 438.871094 C 699.890625 439.574219 693.183594 440.445312 686.496094 441.480469 C 679.8125 442.519531 673.15625 443.71875 666.527344 445.085938 C 659.902344 446.453125 653.3125 447.980469 646.761719 449.675781 C 640.210938 451.367188 633.703125 453.222656 627.246094 455.234375 C 620.785156 457.25 614.378906 459.425781 608.027344 461.757812 C 601.675781 464.089844 595.386719 466.578125 589.160156 469.222656 C 582.929688 471.867188 576.773438 474.664062 570.683594 477.613281 C 564.59375 480.5625 558.578125 483.660156 552.644531 486.90625 C 546.707031 490.15625 540.855469 493.546875 535.085938 497.085938 C 529.320312 500.621094 523.640625 504.300781 518.058594 508.117188 C 512.472656 511.9375 506.984375 515.890625 501.59375 519.984375 C 496.203125 524.074219 490.917969 528.292969 485.738281 532.648438 C 480.558594 537 475.488281 541.476562 470.527344 546.082031 C 465.570312 550.683594 460.726562 555.40625 456.003906 560.25 C 451.277344 565.09375 446.675781 570.050781 442.199219 575.125 C 437.71875 580.195312 433.367188 585.375 429.144531 590.664062 C 424.921875 595.949219 420.832031 601.335938 416.878906 606.828125 C 412.921875 612.316406 409.105469 617.902344 405.425781 623.582031 C 401.75 629.257812 398.210938 635.027344 394.820312 640.878906 C 391.425781 646.734375 388.179688 652.667969 385.082031 658.683594 C 381.984375 664.699219 379.035156 670.785156 376.238281 676.949219 C 373.441406 683.109375 370.796875 689.335938 368.308594 695.625 C 365.820312 701.917969 363.488281 708.269531 361.3125 714.675781 C 359.140625 721.082031 357.125 727.542969 355.273438 734.046875 C 353.417969 740.554688 351.726562 747.105469 350.195312 753.695312 C 348.667969 760.289062 347.300781 766.910156 346.101562 773.570312 C 344.898438 780.230469 343.863281 786.914062 342.992188 793.625 C 342.121094 800.335938 341.417969 807.0625 340.882812 813.808594 C 340.347656 820.550781 339.976562 827.304688 339.773438 834.070312 C 339.570312 840.832031 339.539062 847.597656 339.671875 854.363281 C 339.804688 861.125 340.105469 867.882812 340.570312 874.632812 C 341.039062 881.382812 341.675781 888.117188 342.476562 894.835938 C 343.277344 901.554688 344.246094 908.25 345.378906 914.921875 C 346.511719 921.59375 347.808594 928.230469 349.273438 934.835938 C 350.734375 941.441406 352.359375 948.007812 354.148438 954.535156 C 355.933594 961.0625 357.882812 967.539062 359.992188 973.96875 C 362.101562 980.398438 364.367188 986.769531 366.792969 993.085938 C 369.214844 999.40625 371.792969 1005.65625 374.527344 1011.847656 C 377.261719 1018.035156 380.148438 1024.152344 383.1875 1030.199219 C 386.222656 1036.246094 389.410156 1042.214844 392.742188 1048.101562 C 396.074219 1053.992188 399.550781 1059.792969 403.171875 1065.507812 C 406.792969 1071.226562 410.554688 1076.847656 414.453125 1082.378906 C 418.351562 1087.90625 422.386719 1093.335938 426.554688 1098.667969 C 430.722656 1103.996094 435.019531 1109.222656 439.445312 1114.339844 C 443.875 1119.453125 448.425781 1124.460938 453.101562 1129.351562 C 457.773438 1134.242188 462.566406 1139.015625 467.480469 1143.667969 L 482.617188 1157.03125 C 486.207031 1160.054688 489.84375 1163.015625 493.535156 1165.914062 C 497.226562 1168.8125 500.964844 1171.648438 504.75 1174.417969 C 508.539062 1177.1875 512.371094 1179.890625 516.253906 1182.53125 C 520.132812 1185.167969 524.058594 1187.738281 528.027344 1190.242188 C 531.996094 1192.746094 536.007812 1195.179688 540.058594 1197.542969 C 544.109375 1199.910156 548.203125 1202.203125 552.332031 1204.429688 C 556.464844 1206.652344 560.632812 1208.804688 564.839844 1210.886719 C 569.042969 1212.96875 573.285156 1214.976562 577.558594 1216.914062 C 581.832031 1218.847656 586.140625 1220.710938 590.476562 1222.496094 C 594.816406 1224.285156 599.183594 1225.996094 603.582031 1227.632812 C 607.976562 1229.273438 612.402344 1230.832031 616.851562 1232.316406 C 621.304688 1233.804688 625.777344 1235.210938 630.277344 1236.542969 C 634.777344 1237.875 639.296875 1239.128906 643.839844 1240.304688 C 648.382812 1241.480469 652.945312 1242.578125 657.523438 1243.597656 C 662.105469 1244.617188 666.699219 1245.558594 671.3125 1246.417969 C 675.925781 1247.277344 680.550781 1248.0625 685.191406 1248.761719 C 689.828125 1249.464844 694.480469 1250.085938 699.140625 1250.628906 C 703.800781 1251.171875 708.46875 1251.632812 713.144531 1252.015625 C 717.824219 1252.398438 722.503906 1252.699219 727.191406 1252.921875 C 731.878906 1253.140625 736.566406 1253.28125 741.257812 1253.339844 C 745.953125 1253.402344 750.644531 1253.378906 755.332031 1253.277344 C 760.023438 1253.175781 764.710938 1252.996094 769.398438 1252.730469 C 774.082031 1252.46875 778.761719 1252.125 783.433594 1251.703125 C 788.105469 1251.277344 792.769531 1250.773438 797.425781 1250.191406 C 802.082031 1249.609375 806.726562 1248.945312 811.359375 1248.199219 C 815.992188 1247.457031 820.613281 1246.632812 825.214844 1245.730469 C 829.820312 1244.828125 834.410156 1243.847656 838.980469 1242.789062 C 843.550781 1241.726562 848.101562 1240.589844 852.632812 1239.375 C 857.164062 1238.15625 861.675781 1236.863281 866.160156 1235.492188 C 870.648438 1234.121094 875.109375 1232.671875 879.546875 1231.144531 C 883.984375 1229.621094 888.394531 1228.019531 892.777344 1226.34375 C 897.160156 1224.667969 901.511719 1222.917969 905.835938 1221.089844 C 910.15625 1219.265625 914.445312 1217.363281 918.703125 1215.390625 C 922.960938 1213.417969 927.183594 1211.371094 931.367188 1209.253906 C 935.554688 1207.132812 939.703125 1204.945312 943.816406 1202.683594 C 947.925781 1200.421875 951.996094 1198.089844 956.027344 1195.6875 C 960.058594 1193.285156 964.050781 1190.816406 967.996094 1188.277344 C 971.941406 1185.742188 975.84375 1183.136719 979.699219 1180.460938 C 983.554688 1177.789062 987.367188 1175.050781 991.128906 1172.25 C 994.890625 1169.445312 998.605469 1166.578125 1002.269531 1163.644531 C 1005.933594 1160.714844 1009.542969 1157.722656 1013.105469 1154.667969 C 1016.667969 1151.613281 1020.175781 1148.496094 1023.628906 1145.320312 C 1027.082031 1142.144531 1030.480469 1138.910156 1033.824219 1135.617188 C 1037.164062 1132.324219 1040.449219 1128.976562 1043.679688 1125.570312 C 1046.90625 1122.164062 1050.074219 1118.703125 1053.183594 1115.1875 C 1056.292969 1111.675781 1059.339844 1108.109375 1062.324219 1104.488281 C 1065.3125 1100.867188 1068.234375 1097.199219 1071.09375 1093.480469 C 1073.953125 1089.761719 1076.75 1085.992188 1079.480469 1082.175781 C 1082.210938 1078.359375 1084.875 1074.5 1087.472656 1070.589844 C 1090.070312 1066.683594 1092.597656 1062.734375 1095.0625 1058.738281 C 1097.523438 1054.742188 1099.914062 1050.707031 1102.238281 1046.632812 C 1104.5625 1042.554688 1106.8125 1038.441406 1108.996094 1034.285156 C 1111.175781 1030.132812 1113.289062 1025.941406 1115.324219 1021.714844 C 1117.363281 1017.488281 1119.328125 1013.226562 1121.21875 1008.933594 C 1123.109375 1004.640625 1124.925781 1000.3125 1126.667969 995.957031 C 1128.410156 991.601562 1130.078125 987.214844 1131.667969 982.800781 C 1133.261719 978.386719 1134.777344 973.949219 1136.214844 969.480469 C 1137.65625 965.015625 1139.015625 960.527344 1140.300781 956.011719 C 1141.585938 951.5 1142.792969 946.964844 1143.921875 942.414062 C 1145.050781 937.859375 1146.101562 933.285156 1147.074219 928.695312 C 1148.042969 924.105469 1148.9375 919.5 1149.75 914.878906 C 1150.5625 910.257812 1151.296875 905.625 1151.953125 900.976562 C 1152.605469 896.332031 1153.179688 891.675781 1153.671875 887.007812 C 1154.167969 882.34375 1154.582031 877.667969 1154.914062 872.988281 C 1166.082031 768.703125 1135.460938 636.722656 1083.179688 479.847656 Z M 525.75 1146.042969 C 525.027344 1146.933594 524.261719 1147.789062 523.457031 1148.605469 C 522.652344 1149.421875 521.808594 1150.199219 520.925781 1150.933594 C 520.042969 1151.667969 519.128906 1152.355469 518.179688 1153 C 517.226562 1153.644531 516.25 1154.238281 515.242188 1154.785156 C 514.234375 1155.335938 513.199219 1155.832031 512.144531 1156.277344 C 511.085938 1156.722656 510.007812 1157.117188 508.914062 1157.457031 C 507.816406 1157.796875 506.707031 1158.082031 505.585938 1158.316406 C 504.460938 1158.546875 503.328125 1158.722656 502.1875 1158.84375 C 501.046875 1158.960938 499.902344 1159.027344 498.753906 1159.035156 C 497.605469 1159.039062 496.460938 1158.992188 495.320312 1158.886719 C 494.175781 1158.78125 493.042969 1158.621094 491.914062 1158.40625 C 490.789062 1158.1875 489.675781 1157.917969 488.574219 1157.589844 C 487.472656 1157.265625 486.390625 1156.886719 485.328125 1156.453125 C 484.265625 1156.023438 483.226562 1155.539062 482.210938 1155.003906 C 481.195312 1154.46875 480.210938 1153.886719 479.25 1153.253906 C 478.292969 1152.625 477.367188 1151.949219 476.476562 1151.226562 C 475.585938 1150.503906 474.730469 1149.738281 473.914062 1148.933594 C 473.097656 1148.125 472.324219 1147.28125 471.589844 1146.398438 C 470.855469 1145.519531 470.167969 1144.601562 469.523438 1143.652344 C 468.878906 1142.703125 468.285156 1141.722656 467.738281 1140.714844 C 467.191406 1139.707031 466.695312 1138.671875 466.25 1137.613281 C 465.800781 1136.558594 465.410156 1135.480469 465.070312 1134.386719 C 464.730469 1133.289062 464.445312 1132.179688 464.214844 1131.054688 C 463.984375 1129.929688 463.808594 1128.796875 463.6875 1127.65625 C 463.570312 1126.515625 463.503906 1125.371094 463.5 1124.222656 C 463.492188 1123.078125 463.539062 1121.933594 463.644531 1120.789062 C 463.75 1119.648438 463.914062 1118.511719 464.128906 1117.386719 C 464.347656 1116.257812 464.617188 1115.144531 464.945312 1114.046875 C 465.269531 1112.945312 465.652344 1111.863281 466.082031 1110.800781 C 466.515625 1109.738281 467 1108.699219 467.535156 1107.683594 C 468.070312 1106.667969 468.652344 1105.683594 469.285156 1104.726562 C 469.914062 1103.765625 470.59375 1102.84375 471.316406 1101.949219 C 472.039062 1101.058594 472.804688 1100.207031 473.609375 1099.390625 C 474.414062 1098.574219 475.261719 1097.800781 476.144531 1097.066406 C 477.027344 1096.332031 477.941406 1095.644531 478.890625 1095 C 479.84375 1094.359375 480.824219 1093.761719 481.832031 1093.214844 C 482.839844 1092.667969 483.871094 1092.171875 484.929688 1091.726562 C 485.988281 1091.28125 487.066406 1090.890625 488.160156 1090.550781 C 489.257812 1090.210938 490.367188 1089.925781 491.492188 1089.695312 C 492.613281 1089.464844 493.746094 1089.292969 494.890625 1089.171875 C 496.03125 1089.054688 497.175781 1088.992188 498.320312 1088.984375 C 499.46875 1088.976562 500.613281 1089.027344 501.757812 1089.132812 C 502.898438 1089.238281 504.035156 1089.402344 505.160156 1089.617188 C 506.289062 1089.835938 507.402344 1090.109375 508.5 1090.433594 C 509.601562 1090.761719 510.683594 1091.140625 511.746094 1091.574219 C 512.808594 1092.007812 513.84375 1092.492188 514.859375 1093.027344 C 515.875 1093.5625 516.863281 1094.144531 517.820312 1094.777344 C 518.777344 1095.410156 519.703125 1096.089844 520.59375 1096.8125 C 521.480469 1097.535156 522.335938 1098.296875 523.148438 1099.101562 C 523.964844 1099.910156 524.738281 1100.753906 525.46875 1101.636719 C 526.203125 1102.515625 526.890625 1103.433594 527.53125 1104.382812 C 528.175781 1105.332031 528.769531 1106.308594 529.316406 1107.316406 C 529.859375 1108.324219 530.355469 1109.355469 530.800781 1110.414062 C 531.246094 1111.46875 531.640625 1112.542969 531.976562 1113.640625 C 532.316406 1114.734375 532.601562 1115.84375 532.832031 1116.964844 C 533.0625 1118.089844 533.238281 1119.21875 533.359375 1120.359375 C 533.476562 1121.5 533.539062 1122.644531 533.546875 1123.789062 C 533.554688 1124.933594 533.503906 1126.078125 533.402344 1127.21875 C 533.296875 1128.363281 533.132812 1129.496094 532.917969 1130.621094 C 532.703125 1131.746094 532.429688 1132.859375 532.105469 1133.957031 C 531.78125 1135.054688 531.402344 1136.136719 530.96875 1137.199219 C 530.539062 1138.261719 530.054688 1139.296875 529.523438 1140.3125 C 528.988281 1141.328125 528.40625 1142.3125 527.777344 1143.269531 C 527.144531 1144.226562 526.46875 1145.152344 525.75 1146.042969 Z M 1081.480469 1023.378906 C 980.386719 1158.042969 764.542969 1112.601562 626.152344 1119.136719 C 626.152344 1119.136719 601.621094 1120.578125 576.921875 1124.625 C 576.921875 1124.625 586.238281 1120.667969 598.148438 1116.160156 C 695.335938 1082.335938 741.273438 1075.828125 800.308594 1045.449219 C 911.460938 988.941406 1021.414062 865.191406 1044.261719 736.550781 C 1001.972656 860.300781 873.5625 966.71875 756.679688 1009.9375 C 676.570312 1039.460938 531.851562 1068.21875 531.851562 1068.21875 L 526.015625 1065.089844 C 427.554688 1017.226562 424.515625 803.972656 603.585938 735.199219 C 681.996094 704.996094 757.011719 721.578125 841.691406 701.371094 C 932.113281 679.890625 1036.730469 612.148438 1079.300781 523.746094 C 1126.910156 665.171875 1184.273438 886.53125 1081.417969 1023.46875 Z M 1081.480469 1023.378906 " fill-opacity="1" fill-rule="nonzero"/><g transform="matrix(1, 0, 0, 1, 28, 169)"><g clip-path="url(#1c37fc3adc)"><g fill="#ffffff" fill-opacity="1"><g transform="translate(1.054453, 151.407877)"><g><path d="M 42.84375 -43.046875 C 42.84375 -39.421875 44.316406 -36.566406 47.265625 -34.484375 C 50.222656 -32.410156 53.910156 -31.003906 58.328125 -30.265625 C 62.753906 -29.535156 67.144531 -29.503906 71.5 -30.171875 C 75.863281 -30.835938 79.519531 -32.144531 82.46875 -34.09375 C 85.425781 -36.039062 86.90625 -38.691406 86.90625 -42.046875 C 86.90625 -45.398438 85.726562 -47.878906 83.375 -49.484375 C 81.03125 -51.085938 77.910156 -52.222656 74.015625 -52.890625 C 70.128906 -53.566406 65.84375 -54.039062 61.15625 -54.3125 C 50.957031 -55.113281 42.035156 -56.957031 34.390625 -59.84375 C 26.753906 -62.726562 20.820312 -67.1875 16.59375 -73.21875 C 12.375 -79.25 10.195312 -87.363281 10.0625 -97.5625 C 9.925781 -106.28125 11.769531 -113.722656 15.59375 -119.890625 C 19.414062 -126.054688 24.507812 -131.015625 30.875 -134.765625 C 37.25 -138.523438 44.289062 -141.007812 52 -142.21875 C 59.707031 -143.425781 67.414062 -143.425781 75.125 -142.21875 C 82.84375 -141.007812 89.921875 -138.523438 96.359375 -134.765625 C 102.796875 -131.015625 107.957031 -126.054688 111.84375 -119.890625 C 115.726562 -113.722656 117.601562 -106.28125 117.46875 -97.5625 C 111.164062 -97.5625 105.429688 -97.5625 100.265625 -97.5625 C 95.109375 -97.5625 89.445312 -97.5625 83.28125 -97.5625 C 83.28125 -101.3125 82.003906 -104.257812 79.453125 -106.40625 C 76.910156 -108.550781 73.726562 -109.957031 69.90625 -110.625 C 66.082031 -111.300781 62.257812 -111.238281 58.4375 -110.4375 C 54.613281 -109.632812 51.359375 -108.191406 48.671875 -106.109375 C 45.992188 -104.023438 44.519531 -101.3125 44.25 -97.96875 C 43.988281 -94.476562 44.863281 -91.757812 46.875 -89.8125 C 48.882812 -87.875 51.628906 -86.5 55.109375 -85.6875 C 58.597656 -84.882812 62.421875 -84.21875 66.578125 -83.6875 C 73.554688 -82.875 80.328125 -81.863281 86.890625 -80.65625 C 93.460938 -79.457031 99.394531 -77.515625 104.6875 -74.828125 C 109.988281 -72.148438 114.179688 -68.191406 117.265625 -62.953125 C 120.359375 -57.722656 121.90625 -50.6875 121.90625 -41.84375 C 121.90625 -33.394531 119.820312 -26.117188 115.65625 -20.015625 C 111.5 -13.910156 106.035156 -9.015625 99.265625 -5.328125 C 92.492188 -1.640625 85.019531 0.804688 76.84375 2.015625 C 68.664062 3.222656 60.519531 3.222656 52.40625 2.015625 C 44.289062 0.804688 36.878906 -1.640625 30.171875 -5.328125 C 23.460938 -9.015625 18.0625 -14.007812 13.96875 -20.3125 C 9.882812 -26.613281 7.910156 -34.191406 8.046875 -43.046875 C 14.078125 -43.046875 19.84375 -43.046875 25.34375 -43.046875 C 30.84375 -43.046875 36.675781 -43.046875 42.84375 -43.046875 Z M 42.84375 -43.046875 "/></g></g></g><g fill="#ffffff" fill-opacity="1"><g transform="translate(131.403319, 151.407877)"><g><path d="M 53.90625 0 C 47.875 0 41.835938 0 35.796875 0 C 29.765625 0 23.800781 0 17.90625 0 C 17.90625 -23.46875 17.90625 -46.9375 17.90625 -70.40625 C 17.90625 -93.875 17.90625 -117.34375 17.90625 -140.8125 C 28.09375 -140.8125 38.382812 -140.8125 48.78125 -140.8125 C 59.175781 -140.8125 69.535156 -140.8125 79.859375 -140.8125 C 89.515625 -140.8125 97.757812 -138.898438 104.59375 -135.078125 C 111.4375 -131.253906 116.9375 -126.222656 121.09375 -119.984375 C 125.25 -113.753906 128 -106.914062 129.34375 -99.46875 C 130.6875 -92.03125 130.6875 -84.585938 129.34375 -77.140625 C 128 -69.703125 125.25 -62.863281 121.09375 -56.625 C 116.9375 -50.382812 111.4375 -45.382812 104.59375 -41.625 C 97.757812 -37.875 89.515625 -36 79.859375 -36 L 53.90625 -36 Z M 79.65625 -68.390625 C 83.539062 -68.390625 86.722656 -69.726562 89.203125 -72.40625 C 91.691406 -75.09375 93.367188 -78.445312 94.234375 -82.46875 C 95.109375 -86.5 95.175781 -90.488281 94.4375 -94.4375 C 93.707031 -98.394531 92.097656 -101.75 89.609375 -104.5 C 87.128906 -107.25 83.8125 -108.625 79.65625 -108.625 C 75.5 -108.757812 71.207031 -108.789062 66.78125 -108.71875 C 62.351562 -108.65625 58.0625 -108.625 53.90625 -108.625 C 53.90625 -104.863281 53.90625 -100.570312 53.90625 -95.75 C 53.90625 -90.925781 53.90625 -86.132812 53.90625 -81.375 C 53.90625 -76.613281 53.90625 -72.285156 53.90625 -68.390625 Z M 79.65625 -68.390625 "/></g></g></g><g fill="#ffffff" fill-opacity="1"><g transform="translate(271.005369, 151.407877)"><g><path d="M 109.234375 -49.890625 L 136.78125 -5.234375 L 136.78125 0 L 96.5625 0 L 72.421875 -41.4375 L 53.703125 -41.4375 L 53.703125 0 C 47.671875 0 41.632812 0 35.59375 0 C 29.5625 0 23.597656 0 17.703125 0 C 17.703125 -23.46875 17.703125 -46.9375 17.703125 -70.40625 C 17.703125 -93.875 17.703125 -117.34375 17.703125 -140.8125 C 27.890625 -140.8125 38.179688 -140.8125 48.578125 -140.8125 C 58.972656 -140.8125 69.265625 -140.8125 79.453125 -140.8125 C 88.710938 -140.8125 96.691406 -139.132812 103.390625 -135.78125 C 110.097656 -132.425781 115.53125 -128 119.6875 -122.5 C 123.84375 -117 126.757812 -110.929688 128.4375 -104.296875 C 130.113281 -97.660156 130.515625 -90.921875 129.640625 -84.078125 C 128.773438 -77.242188 126.628906 -70.84375 123.203125 -64.875 C 119.785156 -58.90625 115.128906 -53.910156 109.234375 -49.890625 Z M 79.453125 -73.828125 C 83.347656 -73.828125 86.5 -75 88.90625 -77.34375 C 91.320312 -79.6875 92.960938 -82.566406 93.828125 -85.984375 C 94.703125 -89.410156 94.738281 -92.863281 93.9375 -96.34375 C 93.132812 -99.832031 91.554688 -102.75 89.203125 -105.09375 C 86.859375 -107.445312 83.609375 -108.625 79.453125 -108.625 C 75.296875 -108.757812 71.035156 -108.789062 66.671875 -108.71875 C 62.316406 -108.65625 57.992188 -108.625 53.703125 -108.625 C 53.703125 -102.851562 53.703125 -97.015625 53.703125 -91.109375 C 53.703125 -85.210938 53.703125 -79.453125 53.703125 -73.828125 Z M 79.453125 -73.828125 "/></g></g></g><g fill="#ffffff" fill-opacity="1"><g transform="translate(411.613214, 151.407877)"><g><path d="M 59.75 -31.578125 L 77.640625 -31.578125 C 77.640625 -25.679688 77.640625 -20.484375 77.640625 -15.984375 C 77.640625 -11.492188 77.640625 -6.164062 77.640625 0 C 65.710938 0 53.8125 0 41.9375 0 C 30.070312 0 18.171875 0 6.234375 0 C 6.234375 -6.164062 6.234375 -11.492188 6.234375 -15.984375 C 6.234375 -20.484375 6.234375 -25.679688 6.234375 -31.578125 L 24.140625 -31.578125 L 24.140625 -109.421875 L 7.640625 -109.421875 C 7.640625 -115.460938 7.640625 -120.726562 7.640625 -125.21875 C 7.640625 -129.707031 7.640625 -134.90625 7.640625 -140.8125 C 19.171875 -140.8125 30.632812 -140.8125 42.03125 -140.8125 C 53.4375 -140.8125 64.835938 -140.8125 76.234375 -140.8125 C 76.234375 -134.90625 76.234375 -129.707031 76.234375 -125.21875 C 76.234375 -120.726562 76.234375 -115.460938 76.234375 -109.421875 L 59.75 -109.421875 Z M 59.75 -31.578125 "/></g></g></g><g fill="#ffffff" fill-opacity="1"><g transform="translate(494.891674, 151.407877)"><g><path d="M 126.125 0.203125 L 55.109375 -69.203125 L 55.109375 0 C 48.941406 0 42.738281 0 36.5 0 C 30.269531 0 24.070312 0 17.90625 0 L 17.90625 -141.40625 L 30.984375 -141.40625 L 102.1875 -71.8125 L 102.1875 -140.8125 C 108.351562 -140.8125 114.488281 -140.8125 120.59375 -140.8125 C 126.695312 -140.8125 132.832031 -140.8125 139 -140.8125 L 139 0.203125 Z M 126.125 0.203125 "/></g></g></g><g fill="#ffffff" fill-opacity="1"><g transform="translate(651.793115, 151.407877)"><g><path d="M 9.25 -70.40625 C 9.25 -82.476562 11.328125 -93.003906 15.484375 -101.984375 C 19.640625 -110.972656 25.171875 -118.484375 32.078125 -124.515625 C 38.984375 -130.546875 46.691406 -135.070312 55.203125 -138.09375 C 63.722656 -141.113281 72.476562 -142.625 81.46875 -142.625 C 90.988281 -142.625 100.273438 -140.878906 109.328125 -137.390625 C 118.378906 -133.898438 126.222656 -128.5 132.859375 -121.1875 C 139.503906 -113.882812 143.960938 -104.398438 146.234375 -92.734375 L 110.84375 -92.734375 C 107.882812 -98.765625 104.023438 -103.085938 99.265625 -105.703125 C 94.503906 -108.316406 88.570312 -109.625 81.46875 -109.625 C 73.957031 -109.625 67.585938 -107.847656 62.359375 -104.296875 C 57.128906 -100.742188 53.171875 -96.015625 50.484375 -90.109375 C 47.804688 -84.210938 46.46875 -77.644531 46.46875 -70.40625 C 46.46875 -58.738281 49.648438 -49.382812 56.015625 -42.34375 C 62.390625 -35.300781 70.875 -31.78125 81.46875 -31.78125 C 88.707031 -31.78125 94.738281 -32.988281 99.5625 -35.40625 C 104.394531 -37.820312 108.421875 -42.378906 111.640625 -49.078125 L 81.671875 -49.078125 L 81.671875 -80.265625 L 148.25 -80.265625 C 148.65625 -73.285156 148.6875 -66.375 148.34375 -59.53125 C 148.007812 -52.695312 146.640625 -45.863281 144.234375 -39.03125 C 140.878906 -29.238281 135.914062 -21.359375 129.34375 -15.390625 C 122.769531 -9.421875 115.328125 -5.09375 107.015625 -2.40625 C 98.703125 0.269531 90.1875 1.609375 81.46875 1.609375 C 72.476562 1.609375 63.722656 0.101562 55.203125 -2.90625 C 46.691406 -5.925781 38.984375 -10.421875 32.078125 -16.390625 C 25.171875 -22.359375 19.640625 -29.832031 15.484375 -38.8125 C 11.328125 -47.800781 9.25 -58.332031 9.25 -70.40625 Z M 9.25 -70.40625 "/></g></g></g><g fill="#ffffff" fill-opacity="1"><g transform="translate(810.706144, 151.407877)"><g/></g></g><g fill="#ffffff" fill-opacity="1"><g transform="translate(866.023943, 151.407877)"><g><path d="M 121.90625 -97.5625 C 121.90625 -93.40625 120.929688 -89.007812 118.984375 -84.375 C 117.035156 -79.75 114.320312 -76.03125 110.84375 -73.21875 C 116.601562 -70.269531 120.859375 -66.3125 123.609375 -61.34375 C 126.359375 -56.382812 127.734375 -50.753906 127.734375 -44.453125 C 127.734375 -36.273438 126.054688 -28.832031 122.703125 -22.125 C 119.347656 -15.414062 114.453125 -10.050781 108.015625 -6.03125 C 101.578125 -2.007812 93.53125 0 83.875 0 L 17.90625 0 L 17.90625 -140.8125 L 78.046875 -140.8125 C 86.222656 -140.8125 93.597656 -138.898438 100.171875 -135.078125 C 106.742188 -131.253906 112.007812 -126.085938 115.96875 -119.578125 C 119.925781 -113.078125 121.90625 -105.738281 121.90625 -97.5625 Z M 81.265625 -55.921875 L 52.703125 -55.921875 L 52.703125 -31.984375 L 81.46875 -31.984375 C 85.09375 -31.984375 87.804688 -33.1875 89.609375 -35.59375 C 91.421875 -38.007812 92.289062 -40.796875 92.21875 -43.953125 C 92.15625 -47.109375 91.21875 -49.890625 89.40625 -52.296875 C 87.601562 -54.710938 84.890625 -55.921875 81.265625 -55.921875 Z M 75.234375 -108.625 L 52.703125 -108.625 L 52.703125 -85.484375 L 75.4375 -85.484375 C 79.050781 -85.484375 81.726562 -86.65625 83.46875 -89 C 85.21875 -91.351562 86.09375 -94.035156 86.09375 -97.046875 C 86.09375 -100.066406 85.1875 -102.75 83.375 -105.09375 C 81.5625 -107.445312 78.847656 -108.625 75.234375 -108.625 Z M 75.234375 -108.625 "/></g></g></g><g fill="#ffffff" fill-opacity="1"><g transform="translate(1004.016766, 151.407877)"><g><path d="M 153.6875 -70.203125 C 153.6875 -57.992188 151.640625 -47.332031 147.546875 -38.21875 C 143.453125 -29.101562 137.984375 -21.492188 131.140625 -15.390625 C 124.304688 -9.285156 116.597656 -4.691406 108.015625 -1.609375 C 99.429688 1.472656 90.582031 3.015625 81.46875 3.015625 C 72.351562 3.015625 63.503906 1.472656 54.921875 -1.609375 C 46.335938 -4.691406 38.625 -9.285156 31.78125 -15.390625 C 24.945312 -21.492188 19.484375 -29.101562 15.390625 -38.21875 C 11.296875 -47.332031 9.25 -57.992188 9.25 -70.203125 C 9.25 -82.410156 11.296875 -93.070312 15.390625 -102.1875 C 19.484375 -111.300781 24.945312 -118.910156 31.78125 -125.015625 C 38.625 -131.117188 46.335938 -135.675781 54.921875 -138.6875 C 63.503906 -141.707031 72.351562 -143.21875 81.46875 -143.21875 C 90.582031 -143.21875 99.429688 -141.707031 108.015625 -138.6875 C 116.597656 -135.675781 124.304688 -131.117188 131.140625 -125.015625 C 137.984375 -118.910156 143.453125 -111.300781 147.546875 -102.1875 C 151.640625 -93.070312 153.6875 -82.410156 153.6875 -70.203125 Z M 46.265625 -70.203125 C 46.265625 -61.753906 47.972656 -54.679688 51.390625 -48.984375 C 54.816406 -43.285156 59.210938 -39.023438 64.578125 -36.203125 C 69.941406 -33.390625 75.601562 -31.984375 81.5625 -31.984375 C 87.53125 -31.984375 93.195312 -33.390625 98.5625 -36.203125 C 103.925781 -39.023438 108.316406 -43.285156 111.734375 -48.984375 C 115.160156 -54.679688 116.875 -61.753906 116.875 -70.203125 C 116.875 -78.648438 115.160156 -85.691406 111.734375 -91.328125 C 108.316406 -96.960938 103.925781 -101.1875 98.5625 -104 C 93.195312 -106.8125 87.53125 -108.21875 81.5625 -108.21875 C 75.601562 -108.21875 69.941406 -106.8125 64.578125 -104 C 59.210938 -101.1875 54.816406 -96.960938 51.390625 -91.328125 C 47.972656 -85.691406 46.265625 -78.648438 46.265625 -70.203125 Z M 46.265625 -70.203125 "/></g></g></g><g fill="#ffffff" fill-opacity="1"><g transform="translate(1166.952888, 151.407877)"><g><path d="M 153.6875 -70.203125 C 153.6875 -57.992188 151.640625 -47.332031 147.546875 -38.21875 C 143.453125 -29.101562 137.984375 -21.492188 131.140625 -15.390625 C 124.304688 -9.285156 116.597656 -4.691406 108.015625 -1.609375 C 99.429688 1.472656 90.582031 3.015625 81.46875 3.015625 C 72.351562 3.015625 63.503906 1.472656 54.921875 -1.609375 C 46.335938 -4.691406 38.625 -9.285156 31.78125 -15.390625 C 24.945312 -21.492188 19.484375 -29.101562 15.390625 -38.21875 C 11.296875 -47.332031 9.25 -57.992188 9.25 -70.203125 C 9.25 -82.410156 11.296875 -93.070312 15.390625 -102.1875 C 19.484375 -111.300781 24.945312 -118.910156 31.78125 -125.015625 C 38.625 -131.117188 46.335938 -135.675781 54.921875 -138.6875 C 63.503906 -141.707031 72.351562 -143.21875 81.46875 -143.21875 C 90.582031 -143.21875 99.429688 -141.707031 108.015625 -138.6875 C 116.597656 -135.675781 124.304688 -131.117188 131.140625 -125.015625 C 137.984375 -118.910156 143.453125 -111.300781 147.546875 -102.1875 C 151.640625 -93.070312 153.6875 -82.410156 153.6875 -70.203125 Z M 46.265625 -70.203125 C 46.265625 -61.753906 47.972656 -54.679688 51.390625 -48.984375 C 54.816406 -43.285156 59.210938 -39.023438 64.578125 -36.203125 C 69.941406 -33.390625 75.601562 -31.984375 81.5625 -31.984375 C 87.53125 -31.984375 93.195312 -33.390625 98.5625 -36.203125 C 103.925781 -39.023438 108.316406 -43.285156 111.734375 -48.984375 C 115.160156 -54.679688 116.875 -61.753906 116.875 -70.203125 C 116.875 -78.648438 115.160156 -85.691406 111.734375 -91.328125 C 108.316406 -96.960938 103.925781 -101.1875 98.5625 -104 C 93.195312 -106.8125 87.53125 -108.21875 81.5625 -108.21875 C 75.601562 -108.21875 69.941406 -106.8125 64.578125 -104 C 59.210938 -101.1875 54.816406 -96.960938 51.390625 -91.328125 C 47.972656 -85.691406 46.265625 -78.648438 46.265625 -70.203125 Z M 46.265625 -70.203125 "/></g></g></g><g fill="#ffffff" fill-opacity="1"><g transform="translate(1329.88901, 151.407877)"><g><path d="M 38.625 -108.625 L 4.015625 -108.625 C 4.015625 -114.125 4.015625 -119.519531 4.015625 -124.8125 C 4.015625 -130.113281 4.015625 -135.445312 4.015625 -140.8125 L 108.625 -140.8125 C 108.625 -135.445312 108.625 -130.113281 108.625 -124.8125 C 108.625 -119.519531 108.625 -114.125 108.625 -108.625 L 74.234375 -108.625 L 74.234375 0 C 68.328125 0 62.390625 0 56.421875 0 C 50.453125 0 44.519531 0 38.625 0 Z M 38.625 -108.625 "/></g></g></g></g></g></svg>