<svg xmlns="http://www.w3.org/2000/svg" xmlns:xlink="http://www.w3.org/1999/xlink" width="2000" zoomAndPan="magnify" viewBox="0 0 1500 1499.999933" height="2000" preserveAspectRatio="xMidYMid meet" version="1.0"><defs><g/><clipPath id="1e5579e110"><path d="M 296.695312 391.113281 L 1203.445312 391.113281 L 1203.445312 1260.363281 L 296.695312 1260.363281 Z M 296.695312 391.113281 " clip-rule="nonzero"/></clipPath><clipPath id="b177c2f8f3"><rect x="0" width="343" y="0" height="203"/></clipPath></defs><g clip-path="url(#1e5579e110)"><path fill="#34aadd" d="M 1157.945312 781.175781 C 1138.648438 781.175781 1122.144531 793.296875 1115.617188 810.316406 L 960.210938 810.316406 L 960.210938 726.136719 L 1037.914062 726.136719 C 1044.441406 743.15625 1060.953125 755.277344 1080.238281 755.277344 C 1105.234375 755.277344 1125.566406 734.945312 1125.566406 709.949219 C 1125.566406 684.953125 1105.234375 664.621094 1080.238281 664.621094 C 1060.945312 664.621094 1044.441406 676.742188 1037.914062 693.761719 L 960.199219 693.761719 C 959.648438 640.792969 916.414062 597.859375 863.316406 597.839844 L 863.316406 567.730469 C 880.335938 561.199219 892.457031 544.6875 892.457031 525.402344 C 892.457031 500.40625 872.125 480.074219 847.128906 480.074219 C 822.132812 480.074219 801.800781 500.40625 801.800781 525.402344 C 801.800781 544.6875 813.921875 561.199219 830.941406 567.730469 L 830.941406 597.839844 L 746.761719 597.839844 L 746.761719 478.769531 C 763.78125 472.238281 775.898438 455.726562 775.898438 436.441406 C 775.898438 411.449219 755.566406 391.113281 730.574219 391.113281 C 705.578125 391.113281 685.246094 411.449219 685.246094 436.441406 C 685.246094 455.726562 697.367188 472.238281 714.382812 478.769531 L 714.382812 597.839844 L 630.207031 597.839844 L 630.207031 548.304688 C 647.226562 541.773438 659.34375 525.261719 659.34375 505.976562 C 659.34375 480.980469 639.011719 460.648438 614.015625 460.648438 C 589.023438 460.648438 568.691406 480.980469 568.691406 505.976562 C 568.691406 525.261719 580.808594 541.773438 597.828125 548.304688 L 597.828125 597.839844 L 591.234375 597.839844 C 538.125 597.839844 494.859375 640.78125 494.308594 693.761719 L 462.085938 693.761719 C 455.554688 676.742188 439.042969 664.621094 419.757812 664.621094 C 394.761719 664.621094 374.429688 684.953125 374.429688 709.949219 C 374.429688 734.945312 394.761719 755.277344 419.757812 755.277344 C 439.042969 755.277344 455.554688 743.15625 462.085938 726.136719 L 494.300781 726.136719 L 494.300781 810.316406 L 384.382812 810.316406 C 377.851562 793.296875 361.339844 781.175781 342.054688 781.175781 C 317.058594 781.175781 296.726562 801.511719 296.726562 826.503906 C 296.726562 851.5 317.058594 871.832031 342.054688 871.832031 C 361.339844 871.832031 377.851562 859.710938 384.382812 842.691406 L 494.300781 842.691406 L 494.300781 926.871094 L 423.234375 926.871094 C 416.703125 909.851562 400.191406 897.734375 380.90625 897.734375 C 355.910156 897.734375 335.578125 918.066406 335.578125 943.058594 C 335.578125 968.054688 355.910156 988.386719 380.90625 988.386719 C 400.191406 988.386719 416.703125 976.269531 423.234375 959.25 L 494.761719 959.25 C 499.523438 1008.289062 540.976562 1046.742188 591.234375 1046.742188 L 597.828125 1046.742188 L 597.828125 1114.40625 C 580.808594 1120.9375 568.691406 1137.449219 568.691406 1156.734375 C 568.691406 1181.730469 589.023438 1202.0625 614.015625 1202.0625 C 639.011719 1202.0625 659.34375 1181.730469 659.34375 1156.734375 C 659.34375 1137.4375 647.226562 1120.9375 630.207031 1114.40625 L 630.207031 1046.742188 L 714.382812 1046.742188 L 714.382812 1172.6875 C 697.367188 1179.214844 685.246094 1195.726562 685.246094 1215.011719 C 685.246094 1240.007812 705.578125 1260.339844 730.574219 1260.339844 C 755.566406 1260.339844 775.898438 1240.007812 775.898438 1215.011719 C 775.898438 1195.714844 763.78125 1179.214844 746.761719 1172.6875 L 746.761719 1046.742188 L 830.941406 1046.742188 L 830.941406 1133.832031 C 813.921875 1140.363281 801.800781 1156.875 801.800781 1176.160156 C 801.800781 1201.15625 822.132812 1221.488281 847.128906 1221.488281 C 872.125 1221.488281 892.457031 1201.15625 892.457031 1176.160156 C 892.457031 1156.863281 880.335938 1140.363281 863.316406 1133.832031 L 863.316406 1046.730469 C 913.566406 1046.707031 954.996094 1008.257812 959.753906 959.238281 L 1018.488281 959.238281 C 1025.015625 976.257812 1041.527344 988.375 1060.8125 988.375 C 1085.808594 988.375 1106.140625 968.042969 1106.140625 943.050781 C 1106.140625 918.054688 1085.808594 897.722656 1060.8125 897.722656 C 1041.515625 897.722656 1025.015625 909.84375 1018.488281 926.859375 L 960.210938 926.859375 L 960.210938 842.683594 L 1115.617188 842.683594 C 1122.144531 859.703125 1138.65625 871.820312 1157.945312 871.820312 C 1182.9375 871.820312 1203.269531 851.488281 1203.269531 826.492188 C 1203.269531 801.5 1182.9375 781.167969 1157.945312 781.167969 Z M 1080.238281 697 C 1087.382812 697 1093.191406 702.804688 1093.191406 709.949219 C 1093.191406 717.09375 1087.382812 722.898438 1080.238281 722.898438 C 1073.09375 722.898438 1067.289062 717.09375 1067.289062 709.949219 C 1067.289062 702.804688 1073.09375 697 1080.238281 697 Z M 730.574219 423.492188 C 737.71875 423.492188 743.523438 429.296875 743.523438 436.441406 C 743.523438 443.585938 737.71875 449.394531 730.574219 449.394531 C 723.429688 449.394531 717.621094 443.585938 717.621094 436.441406 C 717.621094 429.296875 723.429688 423.492188 730.574219 423.492188 Z M 614.015625 493.027344 C 621.160156 493.027344 626.96875 498.832031 626.96875 505.976562 C 626.96875 513.121094 621.160156 518.925781 614.015625 518.925781 C 606.871094 518.925781 601.066406 513.121094 601.066406 505.976562 C 601.066406 498.832031 606.871094 493.027344 614.015625 493.027344 Z M 419.757812 722.898438 C 412.613281 722.898438 406.808594 717.09375 406.808594 709.949219 C 406.808594 702.804688 412.613281 697 419.757812 697 C 426.902344 697 432.707031 702.804688 432.707031 709.949219 C 432.707031 717.09375 426.902344 722.898438 419.757812 722.898438 Z M 342.054688 839.457031 C 334.910156 839.457031 329.101562 833.648438 329.101562 826.503906 C 329.101562 819.359375 334.910156 813.554688 342.054688 813.554688 C 349.199219 813.554688 355.003906 819.359375 355.003906 826.503906 C 355.003906 833.648438 349.199219 839.457031 342.054688 839.457031 Z M 380.90625 956.011719 C 373.761719 956.011719 367.957031 950.203125 367.957031 943.058594 C 367.957031 935.914062 373.761719 930.109375 380.90625 930.109375 C 388.050781 930.109375 393.855469 935.914062 393.855469 943.058594 C 393.855469 950.203125 388.050781 956.011719 380.90625 956.011719 Z M 614.015625 1169.695312 C 606.871094 1169.695312 601.066406 1163.890625 601.066406 1156.746094 C 601.066406 1149.601562 606.871094 1143.796875 614.015625 1143.796875 C 621.160156 1143.796875 626.96875 1149.601562 626.96875 1156.746094 C 626.96875 1163.890625 621.160156 1169.695312 614.015625 1169.695312 Z M 730.574219 1227.972656 C 723.429688 1227.972656 717.621094 1222.167969 717.621094 1215.023438 C 717.621094 1207.878906 723.429688 1202.074219 730.574219 1202.074219 C 737.71875 1202.074219 743.523438 1207.878906 743.523438 1215.023438 C 743.523438 1222.167969 737.71875 1227.972656 730.574219 1227.972656 Z M 847.128906 512.453125 C 854.273438 512.453125 860.078125 518.257812 860.078125 525.402344 C 860.078125 532.546875 854.273438 538.351562 847.128906 538.351562 C 839.984375 538.351562 834.179688 532.546875 834.179688 525.402344 C 834.179688 518.257812 839.984375 512.453125 847.128906 512.453125 Z M 847.128906 1189.121094 C 839.984375 1189.121094 834.179688 1183.316406 834.179688 1176.171875 C 834.179688 1169.027344 839.984375 1163.222656 847.128906 1163.222656 C 854.273438 1163.222656 860.078125 1169.027344 860.078125 1176.171875 C 860.078125 1183.316406 854.273438 1189.121094 847.128906 1189.121094 Z M 927.832031 949.804688 C 927.832031 985.398438 898.878906 1014.363281 863.273438 1014.363281 L 591.234375 1014.363281 C 555.640625 1014.363281 526.675781 985.410156 526.675781 949.804688 L 526.675781 694.765625 C 526.675781 659.171875 555.632812 630.207031 591.234375 630.207031 L 863.273438 630.207031 C 898.867188 630.207031 927.832031 659.160156 927.832031 694.765625 Z M 1060.8125 930.109375 C 1067.957031 930.109375 1073.765625 935.914062 1073.765625 943.058594 C 1073.765625 950.203125 1067.957031 956.011719 1060.8125 956.011719 C 1053.667969 956.011719 1047.863281 950.203125 1047.863281 943.058594 C 1047.863281 935.914062 1053.667969 930.109375 1060.8125 930.109375 Z M 1157.945312 839.457031 C 1150.800781 839.457031 1144.992188 833.648438 1144.992188 826.503906 C 1144.992188 819.359375 1150.800781 813.554688 1157.945312 813.554688 C 1165.089844 813.554688 1170.894531 819.359375 1170.894531 826.503906 C 1170.894531 833.648438 1165.089844 839.457031 1157.945312 839.457031 Z M 1157.945312 839.457031 " fill-opacity="1" fill-rule="nonzero"/></g><path fill="#38b6ff" d="M 649.566406 722.035156 L 575.164062 922.542969 L 623.976562 922.542969 L 636.488281 889.414062 L 712.679688 889.414062 L 724.960938 922.542969 L 773.6875 922.542969 L 699.363281 722.035156 Z M 651.414062 849.039062 L 674.28125 786.820312 L 697.820312 849.039062 Z M 651.414062 849.039062 " fill-opacity="1" fill-rule="nonzero"/><path fill="#38b6ff" d="M 802.835938 722.035156 L 850.648438 722.035156 L 850.648438 922.542969 L 802.835938 922.542969 Z M 802.835938 722.035156 " fill-opacity="1" fill-rule="nonzero"/><g transform="matrix(1, 0, 0, 1, 578, 169)"><g clip-path="url(#b177c2f8f3)"><g fill="#ffffff" fill-opacity="1"><g transform="translate(1.615961, 151.407877)"><g><path d="M 59.75 -31.578125 L 77.640625 -31.578125 C 77.640625 -25.679688 77.640625 -20.484375 77.640625 -15.984375 C 77.640625 -11.492188 77.640625 -6.164062 77.640625 0 C 65.710938 0 53.8125 0 41.9375 0 C 30.070312 0 18.171875 0 6.234375 0 C 6.234375 -6.164062 6.234375 -11.492188 6.234375 -15.984375 C 6.234375 -20.484375 6.234375 -25.679688 6.234375 -31.578125 L 24.140625 -31.578125 L 24.140625 -109.421875 L 7.640625 -109.421875 C 7.640625 -115.460938 7.640625 -120.726562 7.640625 -125.21875 C 7.640625 -129.707031 7.640625 -134.90625 7.640625 -140.8125 C 19.171875 -140.8125 30.632812 -140.8125 42.03125 -140.8125 C 53.4375 -140.8125 64.835938 -140.8125 76.234375 -140.8125 C 76.234375 -134.90625 76.234375 -129.707031 76.234375 -125.21875 C 76.234375 -120.726562 76.234375 -115.460938 76.234375 -109.421875 L 59.75 -109.421875 Z M 59.75 -31.578125 "/></g></g></g><g fill="#ffffff" fill-opacity="1"><g transform="translate(84.894421, 151.407877)"><g><path d="M 28.15625 1.203125 C 22.53125 1.203125 17.769531 -0.46875 13.875 -3.8125 C 9.988281 -7.164062 8.046875 -11.59375 8.046875 -17.09375 C 8.046875 -22.726562 9.988281 -27.253906 13.875 -30.671875 C 17.769531 -34.097656 22.53125 -35.8125 28.15625 -35.8125 C 33.65625 -35.8125 38.316406 -34.097656 42.140625 -30.671875 C 45.960938 -27.253906 47.875 -22.726562 47.875 -17.09375 C 47.875 -11.59375 45.960938 -7.164062 42.140625 -3.8125 C 38.316406 -0.46875 33.65625 1.203125 28.15625 1.203125 Z M 28.15625 1.203125 "/></g></g></g><g fill="#ffffff" fill-opacity="1"><g transform="translate(142.02262, 151.407877)"><g><path d="M 107.421875 0 L 99.171875 -17.703125 L 43.65625 -17.703125 L 35.40625 0 L 0.203125 0 L 0.203125 -5.234375 L 63.5625 -142.625 L 79.046875 -142.625 L 142.625 -5.234375 L 142.625 0 Z M 87.296875 -48.6875 L 71.203125 -85.6875 L 55.515625 -48.6875 Z M 87.296875 -48.6875 "/></g></g></g><g fill="#ffffff" fill-opacity="1"><g transform="translate(285.245451, 151.407877)"><g><path d="M 28.15625 1.203125 C 22.53125 1.203125 17.769531 -0.46875 13.875 -3.8125 C 9.988281 -7.164062 8.046875 -11.59375 8.046875 -17.09375 C 8.046875 -22.726562 9.988281 -27.253906 13.875 -30.671875 C 17.769531 -34.097656 22.53125 -35.8125 28.15625 -35.8125 C 33.65625 -35.8125 38.316406 -34.097656 42.140625 -30.671875 C 45.960938 -27.253906 47.875 -22.726562 47.875 -17.09375 C 47.875 -11.59375 45.960938 -7.164062 42.140625 -3.8125 C 38.316406 -0.46875 33.65625 1.203125 28.15625 1.203125 Z M 28.15625 1.203125 "/></g></g></g></g></g></svg>