<svg xmlns="http://www.w3.org/2000/svg" xmlns:xlink="http://www.w3.org/1999/xlink" width="2000" zoomAndPan="magnify" viewBox="0 0 1500 1499.999933" height="2000" preserveAspectRatio="xMidYMid meet" version="1.0"><defs><g/><clipPath id="2cda828c90"><path d="M 214 818 L 657 818 L 657 1033.058594 L 214 1033.058594 Z M 214 818 " clip-rule="nonzero"/></clipPath><clipPath id="9eab833993"><rect x="0" width="408" y="0" height="203"/></clipPath></defs><g clip-path="url(#2cda828c90)"><path fill="#34aadd" d="M 214.96875 984.25 L 250.222656 984.25 L 250.222656 845.089844 L 304.796875 966.449219 C 311.234375 981.078125 320.050781 986.335938 337.335938 986.335938 C 354.621094 986.335938 363.09375 981.136719 369.542969 966.449219 L 424.121094 845.089844 L 424.121094 984.300781 L 459.378906 984.300781 L 459.378906 845.320312 C 459.378906 831.761719 453.945312 825.203125 442.765625 821.820312 C 415.988281 813.457031 398.019531 820.691406 389.886719 838.769531 L 336.332031 958.539062 L 284.460938 838.714844 C 276.664062 820.636719 258.363281 813.40625 231.585938 821.765625 C 220.390625 825.15625 214.96875 831.714844 214.96875 845.269531 Z M 488.679688 870.941406 L 523.921875 870.941406 L 523.921875 947.644531 C 523.59375 951.8125 525.261719 961.59375 544.570312 961.894531 C 554.425781 962.050781 620.613281 961.894531 621.230469 961.894531 L 621.230469 870.5625 L 656.550781 870.5625 C 656.707031 870.5625 656.515625 995.09375 656.519531 995.625 C 656.714844 1026.335938 618.410156 1033.007812 600.761719 1033.527344 L 489.449219 1033.527344 L 489.449219 1009.804688 L 600.957031 1009.800781 C 623.644531 1007.398438 620.96875 996.125 620.96875 992.328125 L 620.96875 983.078125 L 546.042969 983.078125 C 511.183594 982.765625 488.988281 967.546875 488.710938 950.042969 C 488.6875 948.476562 489.464844 871.695312 488.691406 870.9375 Z M 488.679688 870.941406 " fill-opacity="1" fill-rule="nonzero"/></g><path fill="#e48e00" d="M 683.726562 984.25 L 785.078125 984.25 C 796.9375 984.25 808.46875 981.769531 817.628906 977.46875 C 832.886719 970.46875 840.34375 960.972656 840.34375 948.542969 L 840.34375 922.785156 C 840.34375 912.613281 831.867188 903.125 815.261719 896.796875 C 806.449219 893.398438 795.601562 891.597656 785.09375 891.597656 L 742.378906 891.597656 C 728.148438 891.597656 721.367188 887.300781 719.671875 877.8125 C 719.332031 876.683594 719.332031 875.722656 719.332031 874.648438 L 719.332031 858.605469 C 719.332031 857.703125 719.332031 856.792969 719.671875 855.664062 C 721.367188 848.433594 725.097656 846.398438 737.636719 845.214844 C 738.65625 845.214844 740.007812 844.984375 741.03125 844.984375 L 841.707031 844.984375 L 841.707031 821.488281 L 742.726562 821.488281 C 728.488281 821.488281 721.03125 822.394531 714.25 824.425781 C 693.203125 830.984375 684.050781 841.433594 684.050781 859.511719 L 684.050781 880.078125 C 684.050781 895.898438 702.023438 909.457031 732.179688 912.617188 C 735.578125 912.839844 738.964844 913.066406 742.347656 913.066406 L 778.960938 913.066406 C 780.320312 913.066406 781.675781 913.066406 782.691406 913.296875 C 793.871094 914.199219 798.625 916.234375 802.011719 920.296875 C 804.101562 922.386719 804.730469 924.371094 804.730469 926.566406 L 804.730469 947.132812 C 804.730469 949.621094 803.035156 952.785156 799.644531 955.492188 C 796.59375 958.210938 791.511719 960.011719 784.726562 960.464844 C 783.371094 960.464844 782.355469 960.691406 781.003906 960.691406 L 683.714844 960.691406 L 683.714844 984.191406 Z M 1060.253906 943.351562 C 1060.253906 967.53125 1078.214844 981.089844 1114.488281 983.800781 C 1117.871094 984.0625 1121.261719 984.210938 1124.65625 984.25 L 1216.519531 984.25 L 1216.519531 960.75 L 1123.976562 960.75 C 1103.300781 960.75 1095.5 955.550781 1095.5 943.121094 L 1095.5 821.535156 L 1060.246094 821.535156 L 1060.246094 943.339844 Z M 862.832031 944.574219 L 862.832031 860.792969 C 862.832031 839.503906 877.773438 826.59375 907.324219 822.519531 C 910.480469 822.066406 913.652344 821.84375 916.839844 821.839844 L 983.753906 821.839844 C 987.054688 821.839844 990.339844 822.066406 993.609375 822.519531 C 1023.160156 826.59375 1038.105469 839.5 1038.105469 860.792969 L 1038.105469 944.574219 C 1038.105469 961.839844 1031.757812 971.082031 1017.125 977.109375 L 1051.851562 1008.457031 L 1010.917969 1008.457031 L 982.824219 983.09375 L 954.542969 984.886719 L 916.839844 984.886719 C 910.386719 984.886719 903.59375 983.980469 896.117188 981.941406 C 873.652344 975.828125 862.835938 964.050781 862.835938 944.574219 Z M 900.882812 942.484375 C 900.882812 943.617188 901.222656 944.746094 901.5625 946.109375 C 903.652344 955.847656 912.769531 961.28125 926.640625 961.28125 L 958.671875 961.28125 L 929.253906 934.722656 L 970.1875 934.722656 L 995.789062 957.886719 C 1000.515625 955.367188 1003.625 951.511719 1004.671875 946.5625 C 1005.011719 945.433594 1005.011719 944.300781 1005.011719 943.167969 L 1005.011719 862.835938 C 1005.011719 861.929688 1005.011719 860.746094 1004.671875 859.664062 C 1002.582031 850.609375 993.457031 845.398438 979.871094 845.398438 L 926.734375 845.398438 C 911.0625 845.398438 900.925781 852.191406 900.925781 862.835938 L 900.925781 942.546875 Z M 900.882812 942.484375 " fill-opacity="1" fill-rule="nonzero"/><path fill="#34aadd" d="M 1247.511719 782.546875 C 1225.84375 781.964844 1209.289062 783.976562 1195.140625 789.941406 C 1191.117188 791.640625 1184.703125 791.679688 1184.046875 796.722656 C 1186.257812 799.039062 1186.605469 802.496094 1188.355469 805.34375 C 1191.738281 810.816406 1197.449219 818.144531 1202.53125 821.980469 C 1208.089844 826.175781 1213.816406 830.667969 1219.789062 834.3125 C 1230.394531 840.78125 1242.234375 844.472656 1252.445312 850.949219 C 1258.464844 854.761719 1264.441406 859.570312 1270.316406 863.882812 C 1273.214844 866.015625 1275.171875 869.328125 1278.9375 870.660156 L 1278.9375 870.042969 C 1276.949219 867.519531 1276.441406 864.050781 1274.625 861.421875 L 1266.617188 853.414062 C 1258.777344 842.964844 1248.839844 833.886719 1238.269531 826.296875 C 1229.84375 820.246094 1210.976562 812.074219 1207.457031 802.261719 L 1206.84375 801.644531 C 1212.820312 800.964844 1219.816406 798.808594 1225.339844 797.335938 C 1234.601562 794.851562 1242.882812 795.492188 1252.457031 793.023438 L 1265.398438 789.324219 L 1265.398438 786.859375 C 1260.558594 781.894531 1257.109375 775.328125 1251.839844 770.839844 C 1238.046875 759.082031 1222.980469 747.351562 1207.480469 737.558594 C 1198.878906 732.121094 1188.253906 728.601562 1179.132812 724 C 1176.066406 722.453125 1170.679688 721.648438 1168.660156 719.066406 C 1163.871094 712.964844 1161.265625 705.21875 1157.570312 698.167969 C 1149.839844 683.273438 1142.242188 667.003906 1135.386719 651.335938 C 1130.710938 640.652344 1127.652344 630.113281 1121.832031 620.523438 C 1093.855469 574.523438 1063.734375 546.757812 1017.085938 519.476562 C 1007.15625 513.675781 995.207031 511.375 982.574219 508.382812 L 962.238281 507.148438 C 958.101562 505.425781 953.796875 500.355469 949.90625 497.902344 C 934.453125 488.128906 894.8125 466.902344 883.363281 494.765625 C 876.136719 512.390625 894.164062 529.585938 900.617188 538.519531 C 905.140625 544.789062 910.941406 551.804688 914.167969 558.855469 C 916.296875 563.484375 916.667969 568.128906 918.484375 573.03125 C 922.964844 585.046875 926.859375 598.230469 932.65625 609.386719 C 935.582031 615.027344 938.808594 620.972656 942.515625 626.019531 C 944.789062 629.121094 948.679688 630.484375 949.292969 635.269531 C 945.488281 640.597656 945.269531 648.855469 943.125 655.605469 C 933.496094 685.972656 937.128906 723.710938 951.136719 746.1875 C 955.4375 753.085938 965.554688 767.882812 979.480469 762.207031 C 991.65625 757.246094 988.886719 741.882812 992.421875 728.320312 C 993.207031 725.238281 992.726562 722.988281 994.273438 720.925781 L 994.273438 721.542969 L 1005.363281 743.722656 C 1013.566406 756.941406 1028.144531 770.761719 1040.488281 780.085938 C 1046.886719 784.921875 1051.980469 793.28125 1060.207031 796.105469 L 1060.207031 795.492188 L 1059.589844 795.492188 C 1057.984375 792.984375 1055.476562 791.953125 1053.425781 789.953125 C 1048.601562 785.222656 1043.234375 779.34375 1039.25 773.933594 C 1028.015625 758.6875 1018.097656 742.007812 1009.058594 724.636719 C 1004.742188 716.34375 1000.988281 707.195312 997.355469 698.757812 C 995.957031 695.5 995.972656 690.585938 993.046875 688.898438 C 989.058594 695.082031 983.1875 700.078125 980.101562 707.382812 C 975.171875 719.054688 974.53125 733.289062 972.710938 748.054688 C 971.628906 748.441406 972.109375 748.171875 971.476562 748.671875 C 962.898438 746.601562 959.878906 737.765625 956.691406 730.183594 C 948.621094 711.007812 947.128906 680.152344 954.222656 658.089844 C 956.054688 652.386719 964.359375 634.402344 961 629.128906 C 959.398438 623.867188 954.105469 620.769531 951.140625 616.800781 C 947.484375 611.835938 943.816406 605.285156 941.28125 599.546875 C 934.675781 584.601562 931.59375 567.832031 924.644531 552.714844 C 921.324219 545.496094 915.710938 538.191406 911.09375 531.816406 C 905.984375 524.710938 900.261719 519.464844 896.304688 510.917969 C 894.894531 507.859375 892.984375 502.972656 895.074219 499.824219 C 895.171875 499.371094 895.335938 498.941406 895.558594 498.535156 C 895.78125 498.128906 896.054688 497.761719 896.382812 497.433594 C 896.710938 497.105469 897.078125 496.832031 897.484375 496.609375 C 897.890625 496.386719 898.320312 496.222656 898.773438 496.125 C 902.347656 493.371094 912.304688 497.039062 916.023438 498.589844 C 925.898438 502.699219 934.15625 506.605469 942.527344 512.148438 C 946.546875 514.761719 950.609375 519.964844 955.460938 521.398438 L 961 521.398438 C 969.675781 523.394531 979.390625 522.023438 987.492188 524.480469 C 1001.816406 528.832031 1014.648438 535.609375 1026.3125 542.964844 C 1061.832031 565.390625 1090.867188 597.316406 1110.730469 635.445312 C 1113.929688 641.574219 1115.308594 647.433594 1118.125 653.933594 C 1123.804688 666.996094 1130.957031 680.542969 1136.609375 693.363281 C 1142.253906 706.164062 1147.738281 719.070312 1155.710938 729.71875 C 1159.902344 735.308594 1176.089844 738.320312 1183.441406 741.421875 C 1188.597656 743.601562 1197.039062 745.875 1201.925781 748.816406 C 1211.253906 754.445312 1220.292969 761.148438 1229.042969 767.3125 C 1233.417969 770.394531 1246.859375 777.152344 1247.527344 782.714844 Z M 1247.511719 782.546875 " fill-opacity="1" fill-rule="nonzero"/><path fill="#34aadd" d="M 972.109375 547.785156 C 967.589844 547.699219 964.398438 548.273438 961.015625 549.015625 L 961.015625 549.632812 L 961.632812 549.632812 C 963.785156 554.0625 967.589844 556.910156 970.253906 560.726562 L 976.417969 573.664062 L 977.035156 573.046875 C 980.851562 570.355469 982.601562 566.054688 982.574219 559.488281 C 981.042969 557.878906 980.820312 555.859375 979.492188 553.9375 C 977.730469 551.378906 974.265625 549.925781 972.097656 547.773438 Z M 972.109375 547.785156 " fill-opacity="1" fill-rule="evenodd"/><path fill="#e48e00" d="M 1233.09375 960.078125 C 1233.09375 975.597656 1245.355469 986.058594 1259.070312 986.058594 C 1272.785156 986.058594 1285.050781 975.597656 1285.050781 960.078125 C 1285.050781 944.5625 1272.785156 934.101562 1259.070312 934.101562 C 1245.355469 934.101562 1233.09375 944.5625 1233.09375 960.078125 Z M 1279.226562 960.078125 C 1279.226562 971.855469 1270.226562 980.65625 1259.058594 980.65625 C 1247.773438 980.65625 1238.890625 971.855469 1238.890625 960.078125 C 1238.890625 948.304688 1247.765625 939.503906 1259.058594 939.503906 C 1270.214844 939.503906 1279.226562 948.304688 1279.226562 960.078125 Z M 1266.0625 974.910156 L 1271.875 974.910156 L 1263.359375 961.886719 C 1267.933594 961.402344 1271.390625 959.179688 1271.390625 953.777344 C 1271.390625 947.75 1267.578125 945.261719 1260.242188 945.261719 L 1248.667969 945.261719 L 1248.667969 974.914062 L 1253.65625 974.914062 L 1253.65625 962.097656 L 1258.296875 962.097656 L 1266.054688 974.914062 Z M 1253.65625 957.925781 L 1253.65625 949.410156 L 1259.40625 949.410156 C 1262.382812 949.410156 1265.988281 949.964844 1265.988281 953.433594 C 1265.988281 957.585938 1262.734375 957.9375 1258.988281 957.9375 L 1253.65625 957.9375 Z M 1253.65625 957.925781 " fill-opacity="1" fill-rule="evenodd"/><g transform="matrix(1, 0, 0, 1, 546, 169)"><g clip-path="url(#9eab833993)"><g fill="#ffffff" fill-opacity="1"><g transform="translate(1.029771, 151.407877)"><g><path d="M 42.84375 -43.046875 C 42.84375 -39.421875 44.316406 -36.566406 47.265625 -34.484375 C 50.222656 -32.410156 53.910156 -31.003906 58.328125 -30.265625 C 62.753906 -29.535156 67.144531 -29.503906 71.5 -30.171875 C 75.863281 -30.835938 79.519531 -32.144531 82.46875 -34.09375 C 85.425781 -36.039062 86.90625 -38.691406 86.90625 -42.046875 C 86.90625 -45.398438 85.726562 -47.878906 83.375 -49.484375 C 81.03125 -51.085938 77.910156 -52.222656 74.015625 -52.890625 C 70.128906 -53.566406 65.84375 -54.039062 61.15625 -54.3125 C 50.957031 -55.113281 42.035156 -56.957031 34.390625 -59.84375 C 26.753906 -62.726562 20.820312 -67.1875 16.59375 -73.21875 C 12.375 -79.25 10.195312 -87.363281 10.0625 -97.5625 C 9.925781 -106.28125 11.769531 -113.722656 15.59375 -119.890625 C 19.414062 -126.054688 24.507812 -131.015625 30.875 -134.765625 C 37.25 -138.523438 44.289062 -141.007812 52 -142.21875 C 59.707031 -143.425781 67.414062 -143.425781 75.125 -142.21875 C 82.84375 -141.007812 89.921875 -138.523438 96.359375 -134.765625 C 102.796875 -131.015625 107.957031 -126.054688 111.84375 -119.890625 C 115.726562 -113.722656 117.601562 -106.28125 117.46875 -97.5625 C 111.164062 -97.5625 105.429688 -97.5625 100.265625 -97.5625 C 95.109375 -97.5625 89.445312 -97.5625 83.28125 -97.5625 C 83.28125 -101.3125 82.003906 -104.257812 79.453125 -106.40625 C 76.910156 -108.550781 73.726562 -109.957031 69.90625 -110.625 C 66.082031 -111.300781 62.257812 -111.238281 58.4375 -110.4375 C 54.613281 -109.632812 51.359375 -108.191406 48.671875 -106.109375 C 45.992188 -104.023438 44.519531 -101.3125 44.25 -97.96875 C 43.988281 -94.476562 44.863281 -91.757812 46.875 -89.8125 C 48.882812 -87.875 51.628906 -86.5 55.109375 -85.6875 C 58.597656 -84.882812 62.421875 -84.21875 66.578125 -83.6875 C 73.554688 -82.875 80.328125 -81.863281 86.890625 -80.65625 C 93.460938 -79.457031 99.394531 -77.515625 104.6875 -74.828125 C 109.988281 -72.148438 114.179688 -68.191406 117.265625 -62.953125 C 120.359375 -57.722656 121.90625 -50.6875 121.90625 -41.84375 C 121.90625 -33.394531 119.820312 -26.117188 115.65625 -20.015625 C 111.5 -13.910156 106.035156 -9.015625 99.265625 -5.328125 C 92.492188 -1.640625 85.019531 0.804688 76.84375 2.015625 C 68.664062 3.222656 60.519531 3.222656 52.40625 2.015625 C 44.289062 0.804688 36.878906 -1.640625 30.171875 -5.328125 C 23.460938 -9.015625 18.0625 -14.007812 13.96875 -20.3125 C 9.882812 -26.613281 7.910156 -34.191406 8.046875 -43.046875 C 14.078125 -43.046875 19.84375 -43.046875 25.34375 -43.046875 C 30.84375 -43.046875 36.675781 -43.046875 42.84375 -43.046875 Z M 42.84375 -43.046875 "/></g></g></g><g fill="#ffffff" fill-opacity="1"><g transform="translate(131.378637, 151.407877)"><g><path d="M 157.109375 0 L 120.5 0 L 117.078125 -6.4375 C 108.492188 -1.875 99.335938 0.90625 89.609375 1.90625 C 79.890625 2.914062 70.300781 2.179688 60.84375 -0.296875 C 51.394531 -2.773438 42.78125 -7.03125 35 -13.0625 C 27.21875 -19.101562 21.015625 -26.882812 16.390625 -36.40625 C 11.765625 -45.925781 9.453125 -57.191406 9.453125 -70.203125 C 9.453125 -82.410156 11.492188 -93.070312 15.578125 -102.1875 C 19.671875 -111.300781 25.140625 -118.910156 31.984375 -125.015625 C 38.828125 -131.117188 46.535156 -135.675781 55.109375 -138.6875 C 63.691406 -141.707031 72.539062 -143.21875 81.65625 -143.21875 C 90.78125 -143.21875 99.632812 -141.707031 108.21875 -138.6875 C 116.800781 -135.675781 124.507812 -131.117188 131.34375 -125.015625 C 138.1875 -118.910156 143.65625 -111.300781 147.75 -102.1875 C 151.84375 -93.070312 153.890625 -82.410156 153.890625 -70.203125 C 153.890625 -61.890625 152.878906 -54.242188 150.859375 -47.265625 C 148.847656 -40.296875 146.101562 -34.0625 142.625 -28.5625 L 157.109375 -4.625 Z M 46.46875 -70.203125 C 46.46875 -61.753906 48.175781 -54.679688 51.59375 -48.984375 C 55.007812 -43.285156 59.367188 -39.023438 64.671875 -36.203125 C 69.972656 -33.390625 75.640625 -31.984375 81.671875 -31.984375 C 87.703125 -31.984375 93.363281 -33.390625 98.65625 -36.203125 C 103.957031 -39.023438 108.316406 -43.285156 111.734375 -48.984375 C 115.160156 -54.679688 116.875 -61.753906 116.875 -70.203125 C 116.875 -78.648438 115.160156 -85.691406 111.734375 -91.328125 C 108.316406 -96.960938 103.957031 -101.1875 98.65625 -104 C 93.363281 -106.8125 87.703125 -108.21875 81.671875 -108.21875 C 75.640625 -108.21875 69.972656 -106.8125 64.671875 -104 C 59.367188 -101.1875 55.007812 -96.960938 51.59375 -91.328125 C 48.175781 -85.691406 46.46875 -78.648438 46.46875 -70.203125 Z M 46.46875 -70.203125 "/></g></g></g><g fill="#ffffff" fill-opacity="1"><g transform="translate(295.119383, 151.407877)"><g><path d="M 53.90625 -140.8125 C 53.90625 -130.351562 53.90625 -121.703125 53.90625 -114.859375 C 53.90625 -108.015625 53.90625 -102.347656 53.90625 -97.859375 C 53.90625 -93.367188 53.90625 -89.546875 53.90625 -86.390625 C 53.90625 -83.242188 53.90625 -80.226562 53.90625 -77.34375 C 53.90625 -74.457031 53.90625 -71.171875 53.90625 -67.484375 C 53.90625 -63.796875 53.90625 -59.171875 53.90625 -53.609375 C 53.90625 -48.046875 53.90625 -40.972656 53.90625 -32.390625 L 105 -32.390625 C 105 -26.347656 105 -20.945312 105 -16.1875 C 105 -11.425781 105 -6.03125 105 0 C 90.519531 0 75.9375 0 61.25 0 C 46.5625 0 32.046875 0 17.703125 0 L 17.703125 -140.8125 C 23.734375 -140.8125 29.734375 -140.8125 35.703125 -140.8125 C 41.671875 -140.8125 47.738281 -140.8125 53.90625 -140.8125 Z M 53.90625 -140.8125 "/></g></g></g></g></g></svg>